<?xml version="1.0" encoding="UTF-8" standalone="no"?>
<svg
   xmlns:dc="http://purl.org/dc/elements/1.1/"
   xmlns:cc="http://creativecommons.org/ns#"
   xmlns:rdf="http://www.w3.org/1999/02/22-rdf-syntax-ns#"
   xmlns:svg="http://www.w3.org/2000/svg"
   xmlns="http://www.w3.org/2000/svg"
   xmlns:sodipodi="http://sodipodi.sourceforge.net/DTD/sodipodi-0.dtd"
   xmlns:inkscape="http://www.inkscape.org/namespaces/inkscape"
   version="1.2"
   width="45"
   height="57"
   viewBox="0 0 45.000001 57.000002"
   id="svg2"
   inkscape:version="0.91 r13725"
   sodipodi:docname="theme1.svg">
  <metadata
     id="metadata16">
    <rdf:RDF>
      <cc:Work
         rdf:about="">
        <dc:format>image/svg+xml</dc:format>
        <dc:type
           rdf:resource="http://purl.org/dc/dcmitype/StillImage" />
        <dc:title>Image cloud</dc:title>
      </cc:Work>
    </rdf:RDF>
  </metadata>
  <defs
     id="defs14" />
  <sodipodi:namedview
     pagecolor="#ffffff"
     bordercolor="#666666"
     borderopacity="1"
     objecttolerance="10"
     gridtolerance="10"
     guidetolerance="10"
     inkscape:pageopacity="0"
     inkscape:pageshadow="2"
     inkscape:window-width="1920"
     inkscape:window-height="1152"
     id="namedview12"
     showgrid="false"
     inkscape:zoom="6.659612"
     inkscape:cx="32.711079"
     inkscape:cy="33.926861"
     inkscape:window-x="0"
     inkscape:window-y="29"
     inkscape:window-maximized="1"
     inkscape:current-layer="svg2"
     fit-margin-top="0"
     fit-margin-left="0"
     fit-margin-right="0"
     fit-margin-bottom="0"
     showguides="true"
     inkscape:guide-bbox="true" />
  <title
     id="title4">Image cloud</title>
  <desc
     id="desc6">Vector image cloud</desc>
  <path
     style="fill:#000000;stroke:#ffffff"
     d="m 294.9986,-1050.3367 c -9.4803,0 -17.2439,0.028 -17.2523,0.062 -0.01,0.034 -0.8855,44.5379 -1.9546,98.89704 -1.069,54.35916 -1.9874,98.87609 -2.0392,98.92783 -0.052,0.0517 -30.9968,-15.28841 -68.7708,-34.08916 l -68.6862,-34.18151 -0.062,34.18151 c -0.034,18.80018 -0.1173,34.1815 -0.1847,34.1815 -0.067,0 -30.9281,-15.4024 -68.5784,-34.22767 L 0,-920.32075 l 0,158.58001 89.8784,0 227.7741,0 0,-2.89335 c 0,-1.59134 -1.2193,-65.33422 -2.7087,-141.65085 -1.4894,-76.31663 -2.7086,-139.94866 -2.7086,-141.40466 l 0,-2.6471 z"
     id="path2987"
     inkscape:connector-curvature="0"
     sodipodi:nodetypes="scsscccssccccssscs" />
  <path
     style="fill:none;stroke:#ffffff;stroke-width:0.84560817px;stroke-linecap:butt;stroke-linejoin:miter;stroke-opacity:1"
     d="m 992.02489,-558.88672 0,-157.36652 97.48251,78.70962 0,-79.31026 100.0712,80.79976 0,-146.26904 27.4972,0 0,224.03708 z"
     id="path3003"
     inkscape:connector-curvature="0" />
  <path
     inkscape:connector-curvature="0"
     d="m 230.9176,-14.299866 12.50462,-3.350603 c 0.92255,-0.186444 1.79731,-0.04094 2.62425,0.436521 0.82694,0.47743 1.35436,1.141473 1.5823,1.992131 l 3.3506,12.5046142 c 0.51366,2.59754796 0.23637,4.738437 -0.83189,6.422661 L 236.61951,27.205939 c -0.64199,0.77985 -1.40249,1.287544 -2.28152,1.523072 -0.87902,0.235526 -1.70642,0.153311 -2.48219,-0.246632 L 213.41197,17.83384 c -0.82135,-0.570098 -1.35359,-1.308811 -1.59672,-2.216175 -0.24313,-0.907363 -0.13636,-1.75653 0.3203,-2.547507 l 13.63582,-23.438214 c 1.44597,-2.089342 3.16139,-3.39993 5.14625,-3.93177 z m 8.60426,3.529563 c -0.89217,0.299808 -1.55241,0.8414122 -1.98074,1.6248072 -0.42831,0.78337 -0.52849,1.60038 -0.30054,2.451027 0.24313,0.907362 0.77057,1.571399 1.58231,1.992119 0.81174,0.420725 1.61457,0.524711 2.40851,0.311936 0.96408,-0.258324 1.65647,-0.793353 2.07719,-1.605088 0.42073,-0.811741 0.5247,-1.614578 0.31194,-2.408512 -0.31501,-0.948888 -0.86421,-1.6374922 -1.64761,-2.0658162 -0.78337,-0.428317 -1.60038,-0.528497 -2.45103,-0.300536 z"
     id="path4"
     sodipodi:nodetypes="cccscccsccscccccccscscccc"
     style="fill:#ffffff;stroke:#ffffff" />
  <path
     style="fill:none;stroke:#ffffff;stroke-width:2.30000014;stroke-linecap:round;stroke-linejoin:round;stroke-miterlimit:4;stroke-dasharray:none"
     d="m 40.531928,47.048582 0,-37.044676 c -2.842025,0 -9.916584,-0.06675 -9.916584,-0.06675 l 0,-5.59e-5 0,17.7036239 -12.846024,-10.365905 0,10.365905 -13.3012487,-10.343631 0,29.751489"
     id="path3015-8-2"
     inkscape:connector-curvature="0"
     sodipodi:nodetypes="ccccccccc" />
</svg>
