<?xml version="1.0" encoding="UTF-8" standalone="no"?>
<svg
   xmlns:dc="http://purl.org/dc/elements/1.1/"
   xmlns:cc="http://creativecommons.org/ns#"
   xmlns:rdf="http://www.w3.org/1999/02/22-rdf-syntax-ns#"
   xmlns:svg="http://www.w3.org/2000/svg"
   xmlns="http://www.w3.org/2000/svg"
   xmlns:sodipodi="http://sodipodi.sourceforge.net/DTD/sodipodi-0.dtd"
   xmlns:inkscape="http://www.inkscape.org/namespaces/inkscape"
   version="1.2"
   width="45.301159"
   height="57.476299"
   viewBox="0 0 45.301159 57.476299"
   id="svg2"
   inkscape:version="0.91 r13725"
   sodipodi:docname="theme10.svg">
  <metadata
     id="metadata16">
    <rdf:RDF>
      <cc:Work
         rdf:about="">
        <dc:format>image/svg+xml</dc:format>
        <dc:type
           rdf:resource="http://purl.org/dc/dcmitype/StillImage" />
        <dc:title>Image cloud</dc:title>
      </cc:Work>
    </rdf:RDF>
  </metadata>
  <defs
     id="defs14" />
  <sodipodi:namedview
     pagecolor="#ffffff"
     bordercolor="#666666"
     borderopacity="1"
     objecttolerance="10"
     gridtolerance="10"
     guidetolerance="10"
     inkscape:pageopacity="0"
     inkscape:pageshadow="2"
     inkscape:window-width="1920"
     inkscape:window-height="1152"
     id="namedview12"
     showgrid="false"
     inkscape:zoom="11.810477"
     inkscape:cx="39.444595"
     inkscape:cy="33.215883"
     inkscape:window-x="0"
     inkscape:window-y="29"
     inkscape:window-maximized="1"
     inkscape:current-layer="svg2"
     fit-margin-top="0"
     fit-margin-left="0"
     fit-margin-right="0"
     fit-margin-bottom="0"
     showguides="true"
     inkscape:guide-bbox="true" />
  <title
     id="title4">Image cloud</title>
  <desc
     id="desc6">Vector image cloud</desc>
  <path
     style="fill:none;stroke:#ffffff;stroke-width:2.3;stroke-linecap:round;stroke-linejoin:round;stroke-miterlimit:4;stroke-dasharray:none"
     d="m 27.410285,14.270924 c -1.237351,-0.04778 -2.513653,0.127162 -3.782078,0.557778 -2.077658,0.705327 -4.205904,2.477476 -5.428082,4.460101 -1.100396,-0.470743 -2.307787,-0.730379 -3.573232,-0.730379 -4.7065382,0 -8.6021172,3.603259 -9.1791453,8.238231 -2.7439709,1.408776 -4.46859936,4.243246 -4.46859936,7.535214 0,4.182884 2.99433716,7.717882 7.09269286,8.372924 0.4677131,0.07482 7.2789858,0.122938 15.1365868,0.10735 l 14.286715,-0.02952 1.007023,-0.387301 c 3.648223,-1.403327 5.732237,-4.34429 5.732069,-8.088769 -2.27e-4,-3.831552 -2.364665,-7.087539 -5.911954,-8.137206 l -0.911923,-0.269418 -0.002,-1.250242 c -0.01164,-5.792133 -4.636154,-10.171871 -9.99799,-10.378823 z"
     id="path4138"
     inkscape:connector-curvature="0"
     sodipodi:nodetypes="cscscscccccccccc" />
</svg>
