<?xml version="1.0" encoding="UTF-8" standalone="no"?>
<!-- Generator: Adobe Illustrator 19.0.0, SVG Export Plug-In . SVG Version: 6.00 Build 0)  -->

<svg
   xmlns:dc="http://purl.org/dc/elements/1.1/"
   xmlns:cc="http://creativecommons.org/ns#"
   xmlns:rdf="http://www.w3.org/1999/02/22-rdf-syntax-ns#"
   xmlns:svg="http://www.w3.org/2000/svg"
   xmlns="http://www.w3.org/2000/svg"
   xmlns:sodipodi="http://sodipodi.sourceforge.net/DTD/sodipodi-0.dtd"
   xmlns:inkscape="http://www.inkscape.org/namespaces/inkscape"
   version="1.1"
   id="Capa_1"
   x="0px"
   y="0px"
   viewBox="0 0 508.52 508.52"
   style="enable-background:new 0 0 508.52 508.52;"
   xml:space="preserve"
   inkscape:version="0.91 r13725"
   sodipodi:docname="article.svg"><metadata
     id="metadata4208"><rdf:RDF><cc:Work
         rdf:about=""><dc:format>image/svg+xml</dc:format><dc:type
           rdf:resource="http://purl.org/dc/dcmitype/StillImage" /><dc:title /></cc:Work></rdf:RDF></metadata><defs
     id="defs4206" /><sodipodi:namedview
     pagecolor="#ffffff"
     bordercolor="#666666"
     borderopacity="1"
     objecttolerance="10"
     gridtolerance="10"
     guidetolerance="10"
     inkscape:pageopacity="0"
     inkscape:pageshadow="2"
     inkscape:window-width="1920"
     inkscape:window-height="1056"
     id="namedview4204"
     showgrid="false"
     inkscape:zoom="0.92818379"
     inkscape:cx="60.166469"
     inkscape:cy="303.46996"
     inkscape:window-x="0"
     inkscape:window-y="24"
     inkscape:window-maximized="1"
     inkscape:current-layer="Capa_1" /><g
     id="g4405"
     transform="translate(0,50)"><g
       id="g4367"><g
         id="g4330"><g
           id="g4294"><g
             id="g4259"><g
               id="g4174" /><g
               id="g4176" /><g
               id="g4178" /><g
               id="g4180" /><g
               id="g4182" /><g
               id="g4184" /><g
               id="g4186" /><g
               id="g4188" /><g
               id="g4190" /><g
               id="g4192" /><g
               id="g4194" /><g
               id="g4196" /><g
               id="g4198" /><g
               id="g4200" /><g
               id="g4202" /><g
               id="g4219"
               transform="translate(-401.59752,-257.22906)" /><g
               id="g4221"
               transform="translate(-401.59752,-257.22906)" /><g
               id="g4223"
               transform="translate(-401.59752,-257.22906)" /><g
               id="g4225"
               transform="translate(-401.59752,-257.22906)" /><g
               id="g4227"
               transform="translate(-401.59752,-257.22906)" /><g
               id="g4229"
               transform="translate(-401.59752,-257.22906)" /><g
               id="g4231"
               transform="translate(-401.59752,-257.22906)" /><g
               id="g4233"
               transform="translate(-401.59752,-257.22906)" /><g
               id="g4235"
               transform="translate(-401.59752,-257.22906)" /><g
               id="g4237"
               transform="translate(-401.59752,-257.22906)" /><g
               id="g4239"
               transform="translate(-401.59752,-257.22906)" /><g
               id="g4241"
               transform="translate(-401.59752,-257.22906)" /><g
               id="g4243"
               transform="translate(-401.59752,-257.22906)" /><g
               id="g4245"
               transform="translate(-401.59752,-257.22906)" /><g
               id="g4247"
               transform="translate(-401.59752,-257.22906)" /><path
               sodipodi:nodetypes="cccccccccccccccccccccccccccccccccccsccssssssccscssscsssssscccc"
               style="fill:#0000ff"
               id="path4"
               d="m 254.26,95.68945 -94.28464,0 0,94.28465 94.28464,0 z m 31.42822,217.14108 0,31.42822 -157.14108,0 0,-31.42822 z m 0,-248.56929 0,157.14108 -157.14108,0 0,-157.14108 z m 157.14108,248.56929 0,31.42822 -125.71287,0 0,-31.42822 z m 0,-122.85643 0,31.42822 -125.71287,0 0,-31.42822 z m 0,-62.85642 0,31.42821 -125.71287,0 0,-31.42821 z m 0,-62.85644 0,31.42821 -125.71287,0 0,-31.42821 z m -377.13859,295.71161 0,-295.71161 -31.42822,0 0,295.71161 c 0,4.25591 1.555043,7.9389 4.66513,11.04898 3.11008,3.11009 6.793073,4.66514 11.04898,4.66514 4.2559,0 7.93889,-1.55505 11.04897,-4.66514 3.110093,-3.11008 4.66514,-6.79307 4.66514,-11.04898 z m 408.5668,0 0,-327.13982 -377.13859,0 0,327.13982 c 0,5.40173 -0.900287,10.63977 -2.70086,15.71412 l 364.12534,0 c 4.25591,0 7.9389,-1.55505 11.04898,-4.66514 3.11009,-3.11008 4.66513,-6.79307 4.66513,-11.04898 z m 31.42821,-358.56804 0,358.56804 c 0,13.09509 -4.58328,24.22592 -13.74984,33.39249 -9.16656,9.16656 -20.29739,13.74984 -33.39248,13.74984 l -408.5668,0 c -13.095093,0 -24.225923,-4.58328 -33.39249,-13.74984 C 7.4175497,384.19877 2.8342695,373.06794 2.8342695,359.97285 l 0,-327.13982 62.8564405,0 0,-31.42822 z"
               inkscape:connector-curvature="0" /><path
               sodipodi:nodetypes="ccccc"
               style="fill:#0000ff"
               id="path4-5"
               d="m 442.8293,251.9741 0,31.42822 -125.71287,0 0,-31.42822 z"
               inkscape:connector-curvature="0" /><path
               sodipodi:nodetypes="ccccc"
               style="fill:#0000ff"
               id="path4-5-6"
               d="m 285.11475,251.9741 0,31.42822 -157.08739,0 0,-31.42822 z"
               inkscape:connector-curvature="0" /></g></g></g></g></g></svg>