<?xml version="1.0" encoding="UTF-8" standalone="no"?>
<!-- Generator: Adobe Illustrator 19.0.0, SVG Export Plug-In . SVG Version: 6.00 Build 0)  -->

<svg
   xmlns:dc="http://purl.org/dc/elements/1.1/"
   xmlns:cc="http://creativecommons.org/ns#"
   xmlns:rdf="http://www.w3.org/1999/02/22-rdf-syntax-ns#"
   xmlns:svg="http://www.w3.org/2000/svg"
   xmlns="http://www.w3.org/2000/svg"
   xmlns:sodipodi="http://sodipodi.sourceforge.net/DTD/sodipodi-0.dtd"
   xmlns:inkscape="http://www.inkscape.org/namespaces/inkscape"
   version="1.1"
   id="Capa_1"
   x="0px"
   y="0px"
   viewBox="0 0 508.52 508.52"
   style="enable-background:new 0 0 508.52 508.52;"
   xml:space="preserve"
   inkscape:version="0.91 r13725"
   sodipodi:docname="desc.svg"><metadata
     id="metadata4208"><rdf:RDF><cc:Work
         rdf:about=""><dc:format>image/svg+xml</dc:format><dc:type
           rdf:resource="http://purl.org/dc/dcmitype/StillImage" /></cc:Work></rdf:RDF></metadata><defs
     id="defs4206" /><sodipodi:namedview
     pagecolor="#ffffff"
     bordercolor="#666666"
     borderopacity="1"
     objecttolerance="10"
     gridtolerance="10"
     guidetolerance="10"
     inkscape:pageopacity="0"
     inkscape:pageshadow="2"
     inkscape:window-width="1920"
     inkscape:window-height="1060"
     id="namedview4204"
     showgrid="false"
     inkscape:zoom="0.65632504"
     inkscape:cx="348.60834"
     inkscape:cy="289.77801"
     inkscape:window-x="0"
     inkscape:window-y="1"
     inkscape:window-maximized="1"
     inkscape:current-layer="Capa_1" /><g
     id="g4156"
     style="fill:#0000ff;fill-opacity:1"><g
       id="g4158"
       style="fill:#0000ff;fill-opacity:1"><g
         id="g4160"
         style="fill:#0000ff;fill-opacity:1"><g
           id="g4162"
           style="fill:#0000ff;fill-opacity:1"><path
             style="fill:#0000ff;fill-opacity:1"
             d="M444.955,0H63.565C46.021,0,31.782,14.239,31.782,31.782v444.955      c0,17.544,14.239,31.782,31.782,31.782h381.39c17.544,0,31.782-14.239,31.782-31.782V31.782C476.737,14.239,462.499,0,444.955,0      z M444.955,476.737H63.565V31.782h381.39V476.737z"
             id="path4164" /><path
             style="fill:#0000ff;fill-opacity:1"
             d="M238.369,127.13h127.13c8.74,0,15.891-7.119,15.891-15.891s-7.151-15.891-15.891-15.891h-127.13      c-8.772,0-15.891,7.119-15.891,15.891S229.597,127.13,238.369,127.13z"
             id="path4166" /><path
             style="fill:#0000ff;fill-opacity:1"
             d="M143.021,222.477h222.477c8.74,0,15.891-7.119,15.891-15.891c0-8.772-7.151-15.891-15.891-15.891      H143.021c-8.772,0-15.891,7.119-15.891,15.891C127.13,215.358,134.249,222.477,143.021,222.477z"
             id="path4168" /><path
             style="fill:#0000ff;fill-opacity:1"
             d="M143.021,317.825h222.477c8.74,0,15.891-7.151,15.891-15.891s-7.151-15.891-15.891-15.891      H143.021c-8.772,0-15.891,7.151-15.891,15.891S134.249,317.825,143.021,317.825z"
             id="path4170" /><path
             style="fill:#0000ff;fill-opacity:1"
             d="M143.021,413.172h222.477c8.74,0,15.891-7.151,15.891-15.891s-7.151-15.891-15.891-15.891      H143.021c-8.772,0-15.891,7.151-15.891,15.891S134.249,413.172,143.021,413.172z"
             id="path4172" /></g></g></g></g><g
     id="g4174" /><g
     id="g4176" /><g
     id="g4178" /><g
     id="g4180" /><g
     id="g4182" /><g
     id="g4184" /><g
     id="g4186" /><g
     id="g4188" /><g
     id="g4190" /><g
     id="g4192" /><g
     id="g4194" /><g
     id="g4196" /><g
     id="g4198" /><g
     id="g4200" /><g
     id="g4202" /><g
     transform="translate(-401.59752,-257.22906)"
     id="g4219" /><g
     transform="translate(-401.59752,-257.22906)"
     id="g4221" /><g
     transform="translate(-401.59752,-257.22906)"
     id="g4223" /><g
     transform="translate(-401.59752,-257.22906)"
     id="g4225" /><g
     transform="translate(-401.59752,-257.22906)"
     id="g4227" /><g
     transform="translate(-401.59752,-257.22906)"
     id="g4229" /><g
     transform="translate(-401.59752,-257.22906)"
     id="g4231" /><g
     transform="translate(-401.59752,-257.22906)"
     id="g4233" /><g
     transform="translate(-401.59752,-257.22906)"
     id="g4235" /><g
     transform="translate(-401.59752,-257.22906)"
     id="g4237" /><g
     transform="translate(-401.59752,-257.22906)"
     id="g4239" /><g
     transform="translate(-401.59752,-257.22906)"
     id="g4241" /><g
     transform="translate(-401.59752,-257.22906)"
     id="g4243" /><g
     transform="translate(-401.59752,-257.22906)"
     id="g4245" /><g
     transform="translate(-401.59752,-257.22906)"
     id="g4247" /></svg>