<?xml version="1.0" encoding="UTF-8" standalone="no"?>
<!-- Generator: Adobe Illustrator 19.0.0, SVG Export Plug-In . SVG Version: 6.00 Build 0)  -->

<svg
   xmlns:dc="http://purl.org/dc/elements/1.1/"
   xmlns:cc="http://creativecommons.org/ns#"
   xmlns:rdf="http://www.w3.org/1999/02/22-rdf-syntax-ns#"
   xmlns:svg="http://www.w3.org/2000/svg"
   xmlns="http://www.w3.org/2000/svg"
   xmlns:sodipodi="http://sodipodi.sourceforge.net/DTD/sodipodi-0.dtd"
   xmlns:inkscape="http://www.inkscape.org/namespaces/inkscape"
   version="1.1"
   id="Capa_1"
   x="0px"
   y="0px"
   viewBox="0 0 508.52 508.52"
   style="enable-background:new 0 0 508.52 508.52;"
   xml:space="preserve"
   inkscape:version="0.48.5 r10040"
   sodipodi:docname="list.svg"
   width="100%"
   height="100%"><metadata
     id="metadata4208"><rdf:RDF><cc:Work
         rdf:about=""><dc:format>image/svg+xml</dc:format><dc:type
           rdf:resource="http://purl.org/dc/dcmitype/StillImage" /><dc:title></dc:title></cc:Work></rdf:RDF></metadata><defs
     id="defs4206" /><sodipodi:namedview
     pagecolor="#ffffff"
     bordercolor="#666666"
     borderopacity="1"
     objecttolerance="10"
     gridtolerance="10"
     guidetolerance="10"
     inkscape:pageopacity="0"
     inkscape:pageshadow="2"
     inkscape:window-width="1920"
     inkscape:window-height="1152"
     id="namedview4204"
     showgrid="false"
     inkscape:zoom="0.92818377"
     inkscape:cx="429.40574"
     inkscape:cy="334.40646"
     inkscape:window-x="0"
     inkscape:window-y="29"
     inkscape:window-maximized="1"
     inkscape:current-layer="Capa_1" /><g
     id="g4174"
     transform="translate(0,-40)"
     style="fill:#ffffff" /><g
     id="g4176"
     transform="translate(0,-40)"
     style="fill:#ffffff" /><g
     id="g4178"
     transform="translate(0,-40)"
     style="fill:#ffffff" /><g
     id="g4180"
     transform="translate(0,-40)"
     style="fill:#ffffff" /><g
     id="g4182"
     transform="translate(0,-40)"
     style="fill:#ffffff" /><g
     id="g4184"
     transform="translate(0,-40)"
     style="fill:#ffffff" /><g
     id="g4186"
     transform="translate(0,-40)"
     style="fill:#ffffff" /><g
     id="g4188"
     transform="translate(0,-40)"
     style="fill:#ffffff" /><g
     id="g4190"
     transform="translate(0,-40)"
     style="fill:#ffffff" /><g
     id="g4192"
     transform="translate(0,-40)"
     style="fill:#ffffff" /><g
     id="g4194"
     transform="translate(0,-40)"
     style="fill:#ffffff" /><g
     id="g4196"
     transform="translate(0,-40)"
     style="fill:#ffffff" /><g
     id="g4198"
     transform="translate(0,-40)"
     style="fill:#ffffff" /><g
     id="g4200"
     transform="translate(0,-40)"
     style="fill:#ffffff" /><g
     id="g4202"
     transform="translate(0,-40)"
     style="fill:#ffffff" /><g
     transform="translate(-401.59752,-297.22906)"
     id="g4219"
     style="fill:#ffffff" /><g
     transform="translate(-401.59752,-297.22906)"
     id="g4221"
     style="fill:#ffffff" /><g
     transform="translate(-401.59752,-297.22906)"
     id="g4223"
     style="fill:#ffffff" /><g
     transform="translate(-401.59752,-297.22906)"
     id="g4225"
     style="fill:#ffffff" /><g
     transform="translate(-401.59752,-297.22906)"
     id="g4227"
     style="fill:#ffffff" /><g
     transform="translate(-401.59752,-297.22906)"
     id="g4229"
     style="fill:#ffffff" /><g
     transform="translate(-401.59752,-297.22906)"
     id="g4231"
     style="fill:#ffffff" /><g
     transform="translate(-401.59752,-297.22906)"
     id="g4233"
     style="fill:#ffffff" /><g
     transform="translate(-401.59752,-297.22906)"
     id="g4235"
     style="fill:#ffffff" /><g
     transform="translate(-401.59752,-297.22906)"
     id="g4237"
     style="fill:#ffffff" /><g
     transform="translate(-401.59752,-297.22906)"
     id="g4239"
     style="fill:#ffffff" /><g
     transform="translate(-401.59752,-297.22906)"
     id="g4241"
     style="fill:#ffffff" /><g
     transform="translate(-401.59752,-297.22906)"
     id="g4243"
     style="fill:#ffffff" /><g
     transform="translate(-401.59752,-297.22906)"
     id="g4245"
     style="fill:#ffffff" /><g
     transform="translate(-401.59752,-297.22906)"
     id="g4247"
     style="fill:#ffffff" /><g
     id="g4316"
     transform="translate(4.9450684e-4,2.9472795)"
     style="fill:#ffffff"><path
       sodipodi:nodetypes="sssssss"
       inkscape:connector-curvature="0"
       id="path4168"
       d="m 63.021,167.35383 382.477,0 c 8.74,0 15.891,-7.119 15.891,-15.891 0,-8.772 -7.151,-15.891 -15.891,-15.891 l -382.477,0 c -8.772,0 -15.891,7.119 -15.891,15.891 0,8.772 7.119,15.891 15.891,15.891 z"
       style="fill:#ffffff;fill-opacity:1" /><path
       sodipodi:nodetypes="sssssss"
       inkscape:connector-curvature="0"
       id="path4170"
       d="m 63.021,267.20371 382.477,0 c 8.74,0 15.891,-7.151 15.891,-15.891 0,-8.74 -7.151,-15.891 -15.891,-15.891 l -382.477,0 c -8.772,0 -15.891,7.151 -15.891,15.891 0,8.74 7.119,15.891 15.891,15.891 z"
       style="fill:#ffffff;fill-opacity:1" /><path
       sodipodi:nodetypes="sssssss"
       inkscape:connector-curvature="0"
       id="path4172"
       d="m 63.021,367.05356 382.477,0 c 8.74,0 15.891,-7.151 15.891,-15.891 0,-8.74 -7.151,-15.891 -15.891,-15.891 l -382.477,0 c -8.772,0 -15.891,7.151 -15.891,15.891 0,8.74 7.119,15.891 15.891,15.891 z"
       style="fill:#ffffff;fill-opacity:1" /><path
       sodipodi:nodetypes="sssssss"
       inkscape:connector-curvature="0"
       id="path4168-4"
       d="m 63.021,67.50399 382.477,0 c 8.74,0 15.891,-7.119 15.891,-15.891 0,-8.772 -7.151,-15.891 -15.891,-15.891 l -382.477,0 c -8.772,0 -15.891,7.119 -15.891,15.891 0,8.772 7.119,15.891 15.891,15.891 z"
       style="fill:#ffffff;fill-opacity:1" /><path
       style="fill:#ffffff;fill-opacity:1"
       d="m 63.021,466.90344 382.477,0 c 8.74,0 15.891,-7.151 15.891,-15.891 0,-8.74 -7.151,-15.891 -15.891,-15.891 l -382.477,0 c -8.772,0 -15.891,7.151 -15.891,15.891 0,8.74 7.119,15.891 15.891,15.891 z"
       id="path4242"
       inkscape:connector-curvature="0"
       sodipodi:nodetypes="sssssss" /></g></svg>