<?xml version="1.0" encoding="UTF-8" standalone="no"?>
<!-- Generator: Adobe Illustrator 19.0.0, SVG Export Plug-In . SVG Version: 6.00 Build 0)  -->

<svg
   xmlns:dc="http://purl.org/dc/elements/1.1/"
   xmlns:cc="http://creativecommons.org/ns#"
   xmlns:rdf="http://www.w3.org/1999/02/22-rdf-syntax-ns#"
   xmlns:svg="http://www.w3.org/2000/svg"
   xmlns="http://www.w3.org/2000/svg"
   xmlns:sodipodi="http://sodipodi.sourceforge.net/DTD/sodipodi-0.dtd"
   xmlns:inkscape="http://www.inkscape.org/namespaces/inkscape"
   version="1.1"
   id="Capa_1"
   x="0px"
   y="0px"
   viewBox="0 0 508.52 508.52"
   style="enable-background:new 0 0 508.52 508.52;"
   xml:space="preserve"
   inkscape:version="0.91 r13725"
   sodipodi:docname="network.svg"><metadata
     id="metadata4208"><rdf:RDF><cc:Work
         rdf:about=""><dc:format>image/svg+xml</dc:format><dc:type
           rdf:resource="http://purl.org/dc/dcmitype/StillImage" /><dc:title></dc:title></cc:Work></rdf:RDF></metadata><defs
     id="defs4206" /><sodipodi:namedview
     pagecolor="#ffffff"
     bordercolor="#666666"
     borderopacity="1"
     objecttolerance="10"
     gridtolerance="10"
     guidetolerance="10"
     inkscape:pageopacity="0"
     inkscape:pageshadow="2"
     inkscape:window-width="1920"
     inkscape:window-height="1060"
     id="namedview4204"
     showgrid="false"
     inkscape:zoom="1.3126501"
     inkscape:cx="340.08469"
     inkscape:cy="210.18441"
     inkscape:window-x="0"
     inkscape:window-y="1"
     inkscape:window-maximized="1"
     inkscape:current-layer="Capa_1" /><g
     id="g4174" /><g
     id="g4176" /><g
     id="g4178" /><g
     id="g4180" /><g
     id="g4182" /><g
     id="g4184" /><g
     id="g4186" /><g
     id="g4188" /><g
     id="g4190" /><g
     id="g4192" /><g
     id="g4194" /><g
     id="g4196" /><g
     id="g4198" /><g
     id="g4200" /><g
     id="g4202" /><g
     transform="translate(-401.59752,-257.22906)"
     id="g4219" /><g
     transform="translate(-401.59752,-257.22906)"
     id="g4221" /><g
     transform="translate(-401.59752,-257.22906)"
     id="g4223" /><g
     transform="translate(-401.59752,-257.22906)"
     id="g4225" /><g
     transform="translate(-401.59752,-257.22906)"
     id="g4227" /><g
     transform="translate(-401.59752,-257.22906)"
     id="g4229" /><g
     transform="translate(-401.59752,-257.22906)"
     id="g4231" /><g
     transform="translate(-401.59752,-257.22906)"
     id="g4233" /><g
     transform="translate(-401.59752,-257.22906)"
     id="g4235" /><g
     transform="translate(-401.59752,-257.22906)"
     id="g4237" /><g
     transform="translate(-401.59752,-257.22906)"
     id="g4239" /><g
     transform="translate(-401.59752,-257.22906)"
     id="g4241" /><g
     transform="translate(-401.59752,-257.22906)"
     id="g4243" /><g
     transform="translate(-401.59752,-257.22906)"
     id="g4245" /><g
     transform="translate(-401.59752,-257.22906)"
     id="g4247" /><g
     transform="matrix(1.5458094,0,0,1.5458094,6.5193052,6.5200781)"
     id="g4211"
     style="fill:#0000ff;fill-opacity:1;stroke:#0000ff;stroke-width:5.14128256;stroke-miterlimit:4;stroke-dasharray:none;stroke-opacity:1"><path
       inkscape:connector-curvature="0"
       d="m 149.435,119.164 0,-55.594 c 13.007,-3.342 22.648,-15.168 22.648,-29.204 0,-16.624 -13.524,-30.148 -30.148,-30.148 -16.623,0 -30.147,13.524 -30.147,30.148 0,14.036 9.641,25.861 22.647,29.203 l 0,55.594 c -15.775,2.374 -29.169,12.115 -36.556,25.597 l -32.99,-25.646 c 0.807,-2.271 1.25,-4.714 1.25,-7.258 0,-11.99 -9.755,-21.745 -21.745,-21.745 -11.99,0 -21.745,9.755 -21.745,21.745 0,11.99 9.755,21.745 21.745,21.745 3.972,0 7.695,-1.076 10.903,-2.943 l 37.29,28.989 c -0.55,2.971 -0.852,6.027 -0.852,9.155 0,11.14 3.652,21.44 9.815,29.777 l -42.163,42.163 c -2.929,2.929 -2.929,7.678 0,10.606 1.465,1.464 3.385,2.197 5.304,2.197 1.919,0 3.839,-0.732 5.304,-2.197 l 42.163,-42.163 c 6.429,4.753 14.026,8.012 22.277,9.254 l 0,55.718 c -8.306,3.062 -14.245,11.056 -14.245,20.411 0,11.99 9.755,21.745 21.745,21.745 11.99,0 21.745,-9.755 21.745,-21.745 0,-9.356 -5.939,-17.35 -14.245,-20.411 l 0,-55.717 c 24.136,-3.631 42.7,-24.506 42.7,-49.637 0,-25.133 -18.565,-46.008 -42.7,-49.639 z M 44.394,118.602 c -3.72,0 -6.745,-3.026 -6.745,-6.745 0,-3.719 3.025,-6.745 6.745,-6.745 3.72,0 6.745,3.026 6.745,6.745 0,3.719 -3.026,6.745 -6.745,6.745 z m 82.393,-84.236 c 0,-8.353 6.795,-15.148 15.147,-15.148 8.352,0 15.148,6.795 15.148,15.148 0,8.353 -6.796,15.148 -15.148,15.148 -8.352,0 -15.147,-6.795 -15.147,-15.148 z m 15.148,266.947 c -3.72,0 -6.745,-3.026 -6.745,-6.745 0,-3.255 2.317,-5.979 5.389,-6.608 0.44,0.081 0.892,0.129 1.356,0.129 0.464,0 0.916,-0.048 1.356,-0.129 3.072,0.629 5.389,3.353 5.389,6.608 0,3.719 -3.026,6.745 -6.745,6.745 z m 0,-97.312 c -19.409,0 -35.199,-15.791 -35.199,-35.2 0,-3.425 0.501,-6.734 1.417,-9.867 0.049,-0.155 0.095,-0.309 0.133,-0.466 4.425,-14.382 17.834,-24.867 33.649,-24.867 19.409,0 35.2,15.791 35.2,35.2 0,19.41 -15.791,35.2 -35.2,35.2 z"
       id="path4213"
       style="fill:#0000ff;fill-opacity:1;stroke:#0000ff;stroke-width:5.14128256;stroke-miterlimit:4;stroke-dasharray:none;stroke-opacity:1" /><path
       inkscape:connector-curvature="0"
       d="m 290.384,95.953 c -16.624,0 -30.148,13.524 -30.148,30.148 0,0.775 0.039,1.54 0.097,2.3 l -54.238,18.493 c -3.921,1.336 -6.016,5.599 -4.679,9.519 1.063,3.119 3.977,5.082 7.098,5.082 0.803,0 1.619,-0.13 2.421,-0.403 L 265.171,142.6 c 5.392,8.212 14.677,13.65 25.214,13.65 16.623,0 30.147,-13.524 30.147,-30.148 -10e-4,-16.624 -13.525,-30.149 -30.148,-30.149 z m 0,45.297 c -8.353,0 -15.148,-6.795 -15.148,-15.148 0,-8.353 6.796,-15.148 15.148,-15.148 8.352,0 15.147,6.795 15.147,15.148 0,8.352 -6.795,15.148 -15.147,15.148 z"
       id="path4215"
       style="fill:#0000ff;fill-opacity:1;stroke:#0000ff;stroke-width:5.14128256;stroke-miterlimit:4;stroke-dasharray:none;stroke-opacity:1" /><path
       inkscape:connector-curvature="0"
       d="M 30.148,250.44 C 13.524,250.44 0,263.965 0,280.588 c 0,16.624 13.524,30.148 30.148,30.148 16.623,0 30.147,-13.524 30.147,-30.148 C 60.296,263.965 46.771,250.44 30.148,250.44 Z m 0,45.297 C 21.795,295.737 15,288.942 15,280.589 c 0,-8.353 6.796,-15.148 15.148,-15.148 8.352,0 15.147,6.795 15.147,15.148 10e-4,8.352 -6.794,15.148 -15.147,15.148 z"
       id="path4217"
       style="fill:#0000ff;fill-opacity:1;stroke:#0000ff;stroke-width:5.14128256;stroke-miterlimit:4;stroke-dasharray:none;stroke-opacity:1" /></g></svg>