<?xml version="1.0" encoding="UTF-8" standalone="no"?>
<svg
   xmlns:dc="http://purl.org/dc/elements/1.1/"
   xmlns:cc="http://creativecommons.org/ns#"
   xmlns:rdf="http://www.w3.org/1999/02/22-rdf-syntax-ns#"
   xmlns:svg="http://www.w3.org/2000/svg"
   xmlns="http://www.w3.org/2000/svg"
   xmlns:sodipodi="http://sodipodi.sourceforge.net/DTD/sodipodi-0.dtd"
   xmlns:inkscape="http://www.inkscape.org/namespaces/inkscape"
   xml:space="preserve"
   style="enable-background:new 0 0 220.176 220.176;"
   viewBox="0 0 220.176 220.176"
   y="0px"
   x="0px"
   id="Capa_1"
   version="1.1"
   inkscape:version="0.91 r13725"
   sodipodi:docname="sideClose.svg"><sodipodi:namedview
     pagecolor="#ffffff"
     bordercolor="#666666"
     borderopacity="1"
     objecttolerance="10"
     gridtolerance="10"
     guidetolerance="10"
     inkscape:pageopacity="0"
     inkscape:pageshadow="2"
     inkscape:window-width="1920"
     inkscape:window-height="1056"
     id="namedview39"
     showgrid="false"
     inkscape:zoom="1.0718698"
     inkscape:cx="112.88684"
     inkscape:cy="124.08223"
     inkscape:window-x="0"
     inkscape:window-y="24"
     inkscape:window-maximized="1"
     inkscape:current-layer="Capa_1" /><metadata
     id="metadata75"><rdf:RDF><cc:Work
         rdf:about=""><dc:format>image/svg+xml</dc:format><dc:type
           rdf:resource="http://purl.org/dc/dcmitype/StillImage" /><dc:title></dc:title></cc:Work></rdf:RDF></metadata><defs
     id="defs73" /><g
     style="fill:#0000ff;fill-opacity:1"
     id="g7"
     transform="matrix(-1,0,0,-1,220.17612,179.576)"><path
       id="path9"
       d="m 131.577,110.084 84.176,-84.146 c 5.897,-5.928 5.897,-15.565 0,-21.492 -5.928,-5.928 -15.595,-5.928 -21.492,0 L 110.085,88.592 25.938,4.446 c -5.928,-5.928 -15.565,-5.928 -21.492,0 -5.927,5.928 -5.928,15.565 0,21.492 l 84.146,84.146 21.492,21.492 z"
       style="fill:#0000ff;fill-opacity:1"
       inkscape:connector-curvature="0"
       sodipodi:nodetypes="cccccsscccc" /></g><g
     id="g41"
     transform="matrix(-1,0,0,-1,220.17612,179.576)" /><g
     id="g43"
     transform="matrix(-1,0,0,-1,220.17612,179.576)" /><g
     id="g45"
     transform="matrix(-1,0,0,-1,220.17612,179.576)" /><g
     id="g47"
     transform="matrix(-1,0,0,-1,220.17612,179.576)" /><g
     id="g49"
     transform="matrix(-1,0,0,-1,220.17612,179.576)" /><g
     id="g51"
     transform="matrix(-1,0,0,-1,220.17612,179.576)" /><g
     id="g53"
     transform="matrix(-1,0,0,-1,220.17612,179.576)" /><g
     id="g55"
     transform="matrix(-1,0,0,-1,220.17612,179.576)" /><g
     id="g57"
     transform="matrix(-1,0,0,-1,220.17612,179.576)" /><g
     id="g59"
     transform="matrix(-1,0,0,-1,220.17612,179.576)" /><g
     id="g61"
     transform="matrix(-1,0,0,-1,220.17612,179.576)" /><g
     id="g63"
     transform="matrix(-1,0,0,-1,220.17612,179.576)" /><g
     id="g65"
     transform="matrix(-1,0,0,-1,220.17612,179.576)" /><g
     id="g67"
     transform="matrix(-1,0,0,-1,220.17612,179.576)" /><g
     id="g69"
     transform="matrix(-1,0,0,-1,220.17612,179.576)" /></svg>