<?xml version="1.0" encoding="UTF-8" standalone="no"?>
<svg
   xmlns:dc="http://purl.org/dc/elements/1.1/"
   xmlns:cc="http://creativecommons.org/ns#"
   xmlns:rdf="http://www.w3.org/1999/02/22-rdf-syntax-ns#"
   xmlns:svg="http://www.w3.org/2000/svg"
   xmlns="http://www.w3.org/2000/svg"
   xmlns:sodipodi="http://sodipodi.sourceforge.net/DTD/sodipodi-0.dtd"
   xmlns:inkscape="http://www.inkscape.org/namespaces/inkscape"
   version="1.2"
   width="45"
   height="57"
   viewBox="0 0 45.000001 57.000002"
   id="svg2"
   inkscape:version="0.48.5 r10040"
   sodipodi:docname="theme1.svg">
  <metadata
     id="metadata16">
    <rdf:RDF>
      <cc:Work
         rdf:about="">
        <dc:format>image/svg+xml</dc:format>
        <dc:type
           rdf:resource="http://purl.org/dc/dcmitype/StillImage" />
        <dc:title>Image cloud</dc:title>
      </cc:Work>
    </rdf:RDF>
  </metadata>
  <defs
     id="defs14" />
  <sodipodi:namedview
     pagecolor="#ffffff"
     bordercolor="#666666"
     borderopacity="1"
     objecttolerance="10"
     gridtolerance="10"
     guidetolerance="10"
     inkscape:pageopacity="0"
     inkscape:pageshadow="2"
     inkscape:window-width="1920"
     inkscape:window-height="1152"
     id="namedview12"
     showgrid="false"
     inkscape:zoom="2.3545284"
     inkscape:cx="55.470135"
     inkscape:cy="115.70268"
     inkscape:window-x="0"
     inkscape:window-y="29"
     inkscape:window-maximized="1"
     inkscape:current-layer="svg2"
     fit-margin-top="0"
     fit-margin-left="0"
     fit-margin-right="0"
     fit-margin-bottom="0"
     showguides="true"
     inkscape:guide-bbox="true" />
  <title
     id="title4">Image cloud</title>
  <desc
     id="desc6">Vector image cloud</desc>
  <path
     style="fill:#000000"
     d="m 294.9986,-1050.3367 c -9.4803,0 -17.2439,0.028 -17.2523,0.062 -0.01,0.034 -0.8855,44.5379 -1.9546,98.89704 -1.069,54.35916 -1.9874,98.87609 -2.0392,98.92783 -0.052,0.0517 -30.9968,-15.28841 -68.7708,-34.08916 l -68.6862,-34.18151 -0.062,34.18151 c -0.034,18.80018 -0.1173,34.1815 -0.1847,34.1815 -0.067,0 -30.9281,-15.4024 -68.5784,-34.22767 L 0,-920.32075 l 0,158.58001 89.8784,0 227.7741,0 0,-2.89335 c 0,-1.59134 -1.2193,-65.33422 -2.7087,-141.65085 -1.4894,-76.31663 -2.7086,-139.94866 -2.7086,-141.40466 l 0,-2.6471 z"
     id="path2987"
     inkscape:connector-curvature="0"
     sodipodi:nodetypes="scsscccssccccssscs" />
  <path
     style="fill:none;stroke:#000000;stroke-width:0.84560817px;stroke-linecap:butt;stroke-linejoin:miter;stroke-opacity:1"
     d="m 992.02489,-558.88672 0,-157.36652 97.48251,78.70962 0,-79.31026 100.0712,80.79976 0,-146.26904 27.4972,0 0,224.03708 z"
     id="path3003"
     inkscape:connector-curvature="0" />
  <path
     style="fill:#ffffff;stroke:#ffffff;stroke-width:2.00000007000000002;stroke-linecap:round;stroke-linejoin:round;stroke-miterlimit:4;stroke-dasharray:none"
     d="m 32.723022,9.8297032 0,19.8531268 -14.165747,-10.081565 0,10.081565 -13.4233672,-10.0615 0,27.54897 34.7321852,0 0,-37.2804032 c -2.868117,0 -7.143071,-0.060195 -7.143071,-0.060195 z"
     id="path3015"
     inkscape:connector-curvature="0"
     sodipodi:nodetypes="ccccccccc" />
  <path
     style="color:#000000;fill:#ffffff;fill-opacity:1;fill-rule:nonzero;stroke:none;stroke-width:4.14751052999999992;marker:none;visibility:visible;display:inline;overflow:visible;enable-background:accumulate"
     d="M -31.25 -14.625 C -31.294239 -14.428604 -31.34375 -14.233652 -31.34375 -14.03125 C -31.34375 -11.150601 -26.711115 -8.8125 -21.03125 -8.8125 C -15.351385 -8.8125 -10.75 -11.150601 -10.75 -14.03125 C -10.75 -14.233652 -10.799511 -14.428604 -10.84375 -14.625 C -11.454274 -12.039914 -15.769687 -10.03125 -21.03125 -10.03125 C -26.292813 -10.03125 -30.639476 -12.039914 -31.25 -14.625 z "
     id="path4026-7-4" />
  <path
     sodipodi:type="arc"
     style="color:#000000;fill:#ffffff;fill-opacity:1;fill-rule:nonzero;stroke:none;stroke-width:4.14751052999999992;marker:none;visibility:visible;display:inline;overflow:visible;enable-background:accumulate"
     id="path4026-7"
     sodipodi:cx="44.897511"
     sodipodi:cy="52.345074"
     sodipodi:rx="21.472723"
     sodipodi:ry="21.472723"
     d="m 66.370234,52.345074 a 21.472723,21.472723 0 1 1 -42.945446,0 21.472723,21.472723 0 1 1 42.945446,0 z"
     transform="matrix(0.47894746,0,0,0.24290707,-42.54963,-29.358101)" />
</svg>
