<?xml version="1.0" encoding="UTF-8" standalone="no"?>
<svg
   xmlns:dc="http://purl.org/dc/elements/1.1/"
   xmlns:cc="http://creativecommons.org/ns#"
   xmlns:rdf="http://www.w3.org/1999/02/22-rdf-syntax-ns#"
   xmlns:svg="http://www.w3.org/2000/svg"
   xmlns="http://www.w3.org/2000/svg"
   xmlns:sodipodi="http://sodipodi.sourceforge.net/DTD/sodipodi-0.dtd"
   xmlns:inkscape="http://www.inkscape.org/namespaces/inkscape"
   version="1.2"
   width="45.301159"
   height="57.476299"
   viewBox="0 0 45.301159 57.476299"
   id="svg2"
   inkscape:version="0.48.5 r10040"
   sodipodi:docname="theme8.svg">
  <metadata
     id="metadata16">
    <rdf:RDF>
      <cc:Work
         rdf:about="">
        <dc:format>image/svg+xml</dc:format>
        <dc:type
           rdf:resource="http://purl.org/dc/dcmitype/StillImage" />
        <dc:title>Image cloud</dc:title>
      </cc:Work>
    </rdf:RDF>
  </metadata>
  <defs
     id="defs14" />
  <sodipodi:namedview
     pagecolor="#ffffff"
     bordercolor="#666666"
     borderopacity="1"
     objecttolerance="10"
     gridtolerance="10"
     guidetolerance="10"
     inkscape:pageopacity="0"
     inkscape:pageshadow="2"
     inkscape:window-width="1920"
     inkscape:window-height="1152"
     id="namedview12"
     showgrid="false"
     inkscape:zoom="2.8284271"
     inkscape:cx="56.676659"
     inkscape:cy="48.353003"
     inkscape:window-x="0"
     inkscape:window-y="29"
     inkscape:window-maximized="1"
     inkscape:current-layer="svg2"
     fit-margin-top="0"
     fit-margin-left="0"
     fit-margin-right="0"
     fit-margin-bottom="0"
     showguides="true"
     inkscape:guide-bbox="true" />
  <title
     id="title4">Image cloud</title>
  <desc
     id="desc6">Vector image cloud</desc>
  <path
     style="fill:#ffffff;stroke:#ffffff;stroke-width:0.29999999999999999;stroke-miterlimit:4;stroke-dasharray:none"
     d="m -58.239858,47.756933 c -1.99486,-0.638051 -2.55276,-4.437193 -0.91742,-6.247318 1.23413,-1.36604 3.01487,-0.508316 3.53429,1.702356 0.17566,0.747615 0.11527,2.008324 -0.12963,2.705942 -0.46554,1.326197 -1.56017,2.135542 -2.48724,1.83902 z m -13.77499,-5.715184 c -1.03724,-0.323467 -1.41936,-1.510644 -0.91612,-2.846221 0.40543,-1.075991 1.4285,-2.142957 2.54995,-2.659363 0.46767,-0.215354 0.62602,-0.245932 1.27357,-0.245932 0.63537,0 0.78366,0.02746 1.05315,0.194992 0.17251,0.107247 0.41284,0.344882 0.53407,0.528078 0.19869,0.30023 0.22043,0.407037 0.22043,1.082839 0,0.705491 -0.019,0.788309 -0.32097,1.402819 -0.24652,0.501573 -0.47524,0.805991 -0.986,1.312304 -0.72288,0.716607 -1.23328,1.032715 -1.98254,1.227872 -0.58196,0.151582 -0.94571,0.152249 -1.42554,0.0026 z m 26.9495,-0.0067 c -1.2107,-0.325575 -2.42551,-1.401674 -3.00827,-2.664779 -0.21583,-0.467791 -0.24587,-0.624001 -0.24587,-1.278401 0,-0.671179 0.022,-0.778696 0.22042,-1.078578 0.12124,-0.183196 0.36157,-0.420831 0.53408,-0.528077 0.26983,-0.167752 0.41756,-0.194993 1.05741,-0.194993 0.69851,0 0.78347,0.01952 1.39682,0.320974 0.85332,0.419399 1.85942,1.399424 2.24322,2.185084 1.04788,2.14505 -0.0807,3.808103 -2.19781,3.23877 z m -14.26309,-3.655933 c -4.99465,-0.690336 -8.96443,-4.445822 -9.95811,-9.42056 -0.19999,-1.001209 -0.19999,-3.315768 0,-4.316977 0.45836,-2.29475 1.49797,-4.27734 3.11908,-5.948289 1.675,-1.726492 3.61456,-2.796635 6.04216,-3.333739 1.14631,-0.253619 3.48502,-0.253619 4.63132,0 2.41689,0.534733 4.18633,1.499081 5.90605,3.218806 1.71973,1.719725 2.68408,3.489166 3.21881,5.906051 0.25362,1.146303 0.25362,3.485016 0,4.631319 -0.53473,2.416884 -1.49908,4.186325 -3.21881,5.906051 -1.71109,1.711096 -3.51301,2.696225 -5.86402,3.205931 -0.8853,0.191937 -2.98882,0.274096 -3.87648,0.151407 z m 3.14579,-4.765444 c 2.53516,-0.583886 4.57812,-2.624147 5.1921,-5.185251 0.22334,-0.931622 0.22334,-2.325084 0,-3.256707 -0.75752,-3.159827 -3.55894,-5.367907 -6.80634,-5.364751 -1.92063,0.0019 -3.51103,0.643226 -4.88669,1.970649 -1.39588,1.34693 -2.11832,3.059808 -2.11832,5.022455 0,1.880883 0.64146,3.489319 1.92709,4.832129 1.75132,1.829205 4.20233,2.55492 6.69216,1.981476 z m -20.31972,-4.628424 c -2.68579,-0.663474 -3.13388,-3.063221 -0.76685,-4.106883 1.90618,-0.840468 4.54121,-0.230312 5.24008,1.213375 0.57135,1.180254 -0.39001,2.47003 -2.15047,2.885095 -0.6155,0.145115 -1.75271,0.149234 -2.32276,0.0084 z m 35.02504,-0.0074 c -1.34891,-0.341005 -2.28196,-1.231449 -2.28196,-2.17777 0,-1.826656 3.11494,-2.933284 5.40922,-1.921702 1.36921,0.60371 1.90829,1.776114 1.28429,2.793102 -0.28836,0.469969 -1.00308,0.98645 -1.68139,1.215027 -0.60695,0.204532 -2.08657,0.254033 -2.73016,0.09134 z m -28.54478,-11.773016 c -0.68559,-0.244968 -1.32409,-0.678377 -1.9174,-1.30153 -1.29677,-1.361994 -1.60164,-3.053406 -0.71111,-3.945238 0.51896,-0.519726 1.13485,-0.638356 2.06131,-0.397044 0.74926,0.195158 1.25966,0.511266 1.98254,1.227873 0.51076,0.506313 0.73948,0.810731 0.986,1.312303 0.30202,0.61451 0.32097,0.697329 0.32097,1.402821 0,0.675802 -0.0217,0.782608 -0.22043,1.082838 -0.33986,0.513571 -0.7172,0.705286 -1.45572,0.739613 -0.45695,0.02124 -0.73762,-0.01139 -1.04616,-0.121636 z m 22.74706,0.05824 c -0.39155,-0.119897 -0.89433,-0.657799 -1.00818,-1.078597 -0.46477,-1.717905 1.20414,-4.089735 3.25324,-4.623459 0.92373,-0.240601 1.63614,-0.09043 2.12195,0.447305 0.85286,0.944013 0.47946,2.629356 -0.88503,3.994636 -0.8918,0.89232 -1.65391,1.282056 -2.57749,1.318103 -0.34885,0.01361 -0.75587,-0.01248 -0.90449,-0.05799 z m -11.25029,-4.684725 c -1.44108,-0.713326 -2.04481,-3.3354303 -1.20601,-5.2378463 0.60371,-1.369214 1.77612,-1.908297 2.7931,-1.284295 0.47055,0.288715 0.9873,1.004325 1.21417,1.681395 0.21665,0.646588 0.26627,1.947569 0.10109,2.6505823 -0.42385,1.803934 -1.71471,2.778038 -2.90235,2.190164 z"
     id="path2987-8"
     inkscape:connector-curvature="0" />
  <g
     id="g5216"
     transform="matrix(1.0557705,0,0,1.0557705,66.861766,4.2722582)"
     style="fill:#ffffff;stroke:#ffffff">
    <path
       sodipodi:nodetypes="cscccscccccsscsssccsccssccccsscscssssssscscscscccssscscscccscscsccscscsssssssscscscsccsscscsccsssccssscs"
       inkscape:connector-curvature="0"
       id="path2987"
       d="m 22.450536,49.415336 c -0.156975,-0.05261 -0.423208,-0.233411 -0.591637,-0.401839 -0.465277,-0.465278 -0.504181,-0.77409 -0.472641,-3.751863 l 0.02717,-2.562433 0.219213,-0.372851 c 0.589271,-1.002309 1.995061,-1.048639 2.673856,-0.08812 l 0.24798,0.350896 0.02351,2.824115 c 0.02338,2.800808 0.022,2.827176 -0.165317,3.19498 -0.355481,0.698047 -1.222743,1.05479 -1.962134,0.807115 z m -9.71156,-2.41347 c -0.469222,-0.172538 -0.716383,-0.381766 -0.931472,-0.788508 -0.21358,-0.403888 -0.242382,-0.871261 -0.07791,-1.26435 0.174648,-0.41741 2.53223,-4.458875 2.729185,-4.678488 0.246057,-0.27435 0.776055,-0.502086 1.168489,-0.502086 0.980485,0 1.763416,0.940016 1.552566,1.864069 -0.08826,0.386807 -2.52128,4.65414 -2.832065,4.967227 -0.440433,0.443695 -1.068684,0.600732 -1.608793,0.402136 z m 18.841488,-0.410858 c -0.408921,-0.182523 -0.620157,-0.485895 -1.985097,-2.850966 -1.263061,-2.18854 -1.307474,-2.281229 -1.307061,-2.727751 2.49e-4,-0.258131 0.05758,-0.571716 0.129911,-0.710197 0.500458,-0.95844 1.846388,-1.170661 2.564928,-0.404432 0.205119,0.218731 2.204173,3.596095 2.671808,4.513969 0.551747,1.082972 -0.17493,2.301702 -1.367402,2.293303 -0.252512,-0.0021 -0.570702,-0.05303 -0.707087,-0.113926 z M 5.3768327,39.610653 c -0.936395,-0.425401 -1.258537,-1.626451 -0.642056,-2.393784 0.142867,-0.17782 0.618102,-0.522013 1.146024,-0.830012 3.969008,-2.315603 4.037328,-2.346936 4.7074903,-2.159304 1.043117,0.292057 1.496051,1.502188 0.902677,2.411753 -0.207615,0.31826 -0.35575,0.413431 -3.2215763,2.069801 -1.974443,1.141176 -2.206116,1.213385 -2.892559,0.901546 z m 33.3801403,0.03337 c -0.282003,-0.122657 -3.996775,-2.24276 -4.509121,-2.573452 -0.403336,-0.260338 -0.665859,-0.779124 -0.665859,-1.315859 0,-1.014217 0.976409,-1.783432 1.935863,-1.52508 0.384863,0.103631 4.560224,2.488147 4.896646,2.796436 0.523903,0.480096 0.631479,1.374491 0.238259,1.980932 -0.403633,0.622487 -1.264302,0.911689 -1.895788,0.637023 z M 2.8977737,30.066741 c -0.693531,-0.271377 -1.056859,-0.784426 -1.056859,-1.492355 0,-0.472573 0.09633,-0.714589 0.426346,-1.071167 0.468063,-0.505719 0.475041,-0.50685 3.313678,-0.535328 2.791644,-0.028 3.148408,0.0082 3.620346,0.367734 0.710514,0.541231 0.8069953,1.644014 0.20063,2.293207 -0.492707,0.527495 -0.604276,0.544354 -3.569747,0.539417 -1.850443,-0.0028 -2.763587,-0.03468 -2.934394,-0.101508 z M 36.374878,29.963475 c -0.552919,-0.288299 -0.86811,-0.795997 -0.86811,-1.398335 0,-0.50021 0.157989,-0.855078 0.523599,-1.176089 0.487536,-0.428062 0.667914,-0.448818 3.656892,-0.420746 l 2.73395,0.02565 0.343463,0.227405 c 1.037862,0.687159 0.883535,2.353114 -0.257925,2.78439 -0.147969,0.05592 -1.261612,0.08773 -3.058387,0.08741 -2.400927,-4.14e-4 -2.862943,-0.01993 -3.073482,-0.129711 z M 9.5873407,22.905277 c -0.5841,-0.236403 -4.580111,-2.620305 -4.800124,-2.863611 -0.934885,-1.033863 -0.111368,-2.680379 1.289918,-2.579023 0.423512,0.03062 0.668963,0.151369 2.775571,1.365265 2.6628513,1.53441 2.7806943,1.636414 2.8326173,2.451822 0.04978,0.782268 -0.250663,1.300716 -0.914647,1.578148 -0.327037,0.136647 -0.9055663,0.159816 -1.1833353,0.04737 z m 25.0628533,-0.03696 c -0.360432,-0.133413 -0.754465,-0.476965 -0.927976,-0.809091 -0.06413,-0.12276 -0.116609,-0.431483 -0.116609,-0.686042 0,-0.514711 0.118685,-0.801397 0.467912,-1.130248 0.129083,-0.121546 1.257192,-0.809064 2.50691,-1.527811 2.182914,-1.255455 2.290173,-1.306819 2.728909,-1.306819 1.561434,0 2.20209,2.016037 0.915075,2.879588 -0.239651,0.160802 -2.60255,1.527909 -4.188021,2.423076 -0.438144,0.247381 -0.977554,0.308606 -1.3862,0.157347 z m -5.219573,-4.996982 c -0.427449,-0.19419 -0.844024,-0.671403 -0.914634,-1.047798 -0.12329,-0.657212 -0.02131,-0.908683 1.289105,-3.178975 0.695385,-1.204753 1.360728,-2.297448 1.478529,-2.428199 0.271447,-0.301297 0.790978,-0.543899 1.164766,-0.543899 0.648904,0 1.423966,0.604958 1.535279,1.198326 0.123712,0.659412 0.02317,0.908027 -1.28567,3.178975 -0.694345,1.204759 -1.360032,2.297447 -1.479295,2.428205 -0.468036,0.513112 -1.179805,0.6697 -1.78808,0.393365 z M 14.797254,17.544112 c -0.183729,-0.086 -0.429628,-0.26995 -0.546437,-0.408777 -0.18717,-0.222433 -2.313176,-3.845786 -2.664188,-4.540571 -0.403826,-0.799328 0.117008,-1.923514 1.00548,-2.170268 0.383946,-0.106631 0.479372,-0.106486 0.867614,0.0014 0.568433,0.157858 0.826923,0.495645 2.211164,2.889518 1.258903,2.177129 1.333994,2.331304 1.337724,2.746734 0.0079,0.883184 -0.59145,1.548884 -1.448313,1.608537 -0.299084,0.02082 -0.530143,-0.01751 -0.763044,-0.126504 z M 22.49275,15.839418 C 22.032292,15.670107 21.781553,15.462244 21.584391,15.086407 21.421114,14.77516 21.413398,14.631839 21.413398,11.908721 l 0,-2.8517379 0.196169,-0.315535 c 0.315839,-0.508043 0.770298,-0.759031 1.37436,-0.759031 0.604055,0 1.058514,0.250988 1.374353,0.759031 0.194354,0.312626 0.196408,0.340297 0.222391,3.0019549 0.02737,2.806111 -6.9e-4,3.111476 -0.331822,3.576877 -0.341525,0.480344 -1.184163,0.729443 -1.756099,0.519138 z"
       style="fill:#ffffff;stroke:#ffffff" />
    <path
       transform="translate(3.6470852,1.7558306)"
       d="m 27.930717,26.982319 c 0,4.930369 -3.996854,8.927223 -8.927223,8.927223 -4.930369,0 -8.927223,-3.996854 -8.927223,-8.927223 0,-4.930369 3.996854,-8.927223 8.927223,-8.927223 4.930369,0 8.927223,3.996854 8.927223,8.927223 z"
       sodipodi:ry="8.9272232"
       sodipodi:rx="8.9272232"
       sodipodi:cy="26.982319"
       sodipodi:cx="19.003494"
       id="path5214"
       style="color:#000000;fill:#ffffff;fill-opacity:1;fill-rule:nonzero;stroke:#ffffff;stroke-width:0.30000001;stroke-linecap:round;stroke-linejoin:round;stroke-miterlimit:4;stroke-opacity:1;stroke-dasharray:none;stroke-dashoffset:0;marker:none;visibility:visible;display:inline;overflow:visible;enable-background:accumulate"
       sodipodi:type="arc" />
  </g>
  <path
     inkscape:connector-curvature="0"
     d="m 37.117011,28.725529 q 0,-2.938492 -1.142748,-5.61327 -1.142747,-2.67478 -3.089184,-4.621217 -1.946437,-1.94645 -4.621216,-3.089195 -2.674793,-1.142749 -5.613285,-1.142749 -2.938491,0 -5.61327,1.142749 -2.67478,1.142745 -4.62123,3.089195 -1.946436,1.946437 -3.0891818,4.621217 -1.1427482,2.674778 -1.1427482,5.61327 0,2.938492 1.1427482,5.613285 1.1427458,2.67478 3.0891818,4.621215 1.94645,1.946437 4.62123,3.089185 2.674779,1.142746 5.61327,1.142746 2.938492,0 5.613285,-1.142746 2.674779,-1.142748 4.621216,-3.089185 1.946437,-1.946435 3.089184,-4.621215 1.142748,-2.674793 1.142748,-5.613285 z m 6.931831,6.95695 q -0.100523,0.376732 -0.502306,0.502305 l -7.333681,2.411068 v 7.685293 q 0,0.40185 -0.326492,0.652997 -0.376731,0.251159 -0.728344,0.100523 l -7.333681,-2.360842 -4.520762,6.228608 q -0.251146,0.326493 -0.652998,0.326493 -0.401838,0 -0.652996,-0.326493 L 17.47682,44.673823 10.14315,47.034665 Q 9.7915392,47.185357 9.4148072,46.934142 9.0883032,46.682995 9.0883032,46.281145 V 38.595852 L 1.7546328,36.184784 Q 1.3527824,36.059211 1.2523169,35.682479 1.1267437,35.255521 1.3528395,34.954136 L 5.8736024,28.725529 1.3528395,22.496934 Q 1.1268008,22.170431 1.2523168,21.76859 1.3528395,21.39186 1.7546327,21.266276 l 7.3336705,-2.411069 v -7.685293 q 0,-0.401839 0.326504,-0.652998 0.376732,-0.251145 0.7283428,-0.100401 l 7.33367,2.360842 4.520762,-6.2285967 q 0.226039,-0.301385 0.652996,-0.301385 0.426959,0 0.652998,0.301385 l 4.520762,6.2285967 7.333681,-2.360842 q 0.351613,-0.150681 0.728344,0.100401 0.326492,0.251159 0.326492,0.652998 v 7.685293 l 7.333681,2.411069 q 0.40184,0.125584 0.502306,0.502314 0.125573,0.401841 -0.100523,0.728344 l -4.520751,6.228595 4.520751,6.228607 q 0.226038,0.301385 0.100523,0.728343 z"
     id="path4"
     style="fill:#ffffff;stroke:#ffffff;stroke-width:2.11379647;stroke-miterlimit:4;stroke-dasharray:none" />
</svg>
