<?xml version="1.0" encoding="UTF-8" standalone="no"?>
<svg
   xmlns:dc="http://purl.org/dc/elements/1.1/"
   xmlns:cc="http://creativecommons.org/ns#"
   xmlns:rdf="http://www.w3.org/1999/02/22-rdf-syntax-ns#"
   xmlns:svg="http://www.w3.org/2000/svg"
   xmlns="http://www.w3.org/2000/svg"
   xmlns:sodipodi="http://sodipodi.sourceforge.net/DTD/sodipodi-0.dtd"
   xmlns:inkscape="http://www.inkscape.org/namespaces/inkscape"
   version="1.2"
   width="45.301159"
   height="57.476299"
   viewBox="0 0 45.301159 57.476299"
   id="svg2"
   inkscape:version="0.48.5 r10040"
   sodipodi:docname="theme4.svg">
  <metadata
     id="metadata16">
    <rdf:RDF>
      <cc:Work
         rdf:about="">
        <dc:format>image/svg+xml</dc:format>
        <dc:type
           rdf:resource="http://purl.org/dc/dcmitype/StillImage" />
        <dc:title>Image cloud</dc:title>
      </cc:Work>
    </rdf:RDF>
  </metadata>
  <defs
     id="defs14" />
  <sodipodi:namedview
     pagecolor="#ffffff"
     bordercolor="#666666"
     borderopacity="1"
     objecttolerance="10"
     gridtolerance="10"
     guidetolerance="10"
     inkscape:pageopacity="0"
     inkscape:pageshadow="2"
     inkscape:window-width="1920"
     inkscape:window-height="1152"
     id="namedview12"
     showgrid="false"
     inkscape:zoom="2.3545284"
     inkscape:cx="25.183784"
     inkscape:cy="1.0404419"
     inkscape:window-x="0"
     inkscape:window-y="29"
     inkscape:window-maximized="1"
     inkscape:current-layer="svg2"
     fit-margin-top="0"
     fit-margin-left="0"
     fit-margin-right="0"
     fit-margin-bottom="0" />
  <title
     id="title4">Image cloud</title>
  <desc
     id="desc6">Vector image cloud</desc>
  <path
     style="color:#000000;fill:#ffffff;fill-opacity:1;fill-rule:nonzero;stroke:none;stroke-width:2;marker:none;visibility:visible;display:inline;overflow:visible;enable-background:accumulate"
     d="m 1.3246385,11.726978 c -0.68765737,0 -1.23093519,0.620491 -1.23093519,1.405882 l 0,4.428527 45.11375269,0 0,-4.428527 c 0,-0.785391 -0.543277,-1.405882 -1.230934,-1.405882 l -42.6518835,0 z m -1.23093519,14.41029 0,18.206172 c 0,0.785391 0.54327782,1.405881 1.23093519,1.405881 l 42.6518835,0 c 0.687657,0 1.230934,-0.62049 1.230934,-1.405881 l 0,-18.206172 -45.11375269,0 z m 28.55768369,8.857055 9.170462,0 c 1.0911,0 1.969496,1.00324 1.969496,2.249413 l 0,0.632646 c 0,1.246174 -0.878396,2.249412 -1.969496,2.249412 l -9.170463,0 c -1.091099,0 -1.969495,-1.003238 -1.969495,-2.249412 l 0,-0.632646 c 0,-1.246173 0.878396,-2.249413 1.969495,-2.249413 z"
     id="rect4163"
     inkscape:connector-curvature="0" />
  <path
     style="fill:#ffffff;stroke:#ffffff;stroke-width:2;stroke-linecap:round;stroke-linejoin:round;stroke-miterlimit:4;stroke-opacity:1;stroke-dasharray:none"
     d="m -11.279331,74.301327 17.2008971,0"
     id="path4263"
     inkscape:connector-curvature="0" />
</svg>
