<?xml version="1.0" encoding="UTF-8" standalone="no"?>
<svg
   xmlns:dc="http://purl.org/dc/elements/1.1/"
   xmlns:cc="http://creativecommons.org/ns#"
   xmlns:rdf="http://www.w3.org/1999/02/22-rdf-syntax-ns#"
   xmlns:svg="http://www.w3.org/2000/svg"
   xmlns="http://www.w3.org/2000/svg"
   xmlns:sodipodi="http://sodipodi.sourceforge.net/DTD/sodipodi-0.dtd"
   xmlns:inkscape="http://www.inkscape.org/namespaces/inkscape"
   version="1.2"
   width="45.301159"
   height="57.476299"
   viewBox="0 0 45.301159 57.476299"
   id="svg2"
   inkscape:version="0.48.5 r10040"
   sodipodi:docname="theme3.svg">
  <metadata
     id="metadata16">
    <rdf:RDF>
      <cc:Work
         rdf:about="">
        <dc:format>image/svg+xml</dc:format>
        <dc:type
           rdf:resource="http://purl.org/dc/dcmitype/StillImage" />
        <dc:title>Image cloud</dc:title>
      </cc:Work>
    </rdf:RDF>
  </metadata>
  <defs
     id="defs14" />
  <sodipodi:namedview
     pagecolor="#ffffff"
     bordercolor="#666666"
     borderopacity="1"
     objecttolerance="10"
     gridtolerance="10"
     guidetolerance="10"
     inkscape:pageopacity="0"
     inkscape:pageshadow="2"
     inkscape:window-width="1920"
     inkscape:window-height="1152"
     id="namedview12"
     showgrid="false"
     inkscape:zoom="9.4181136"
     inkscape:cx="17.697389"
     inkscape:cy="24.039717"
     inkscape:window-x="0"
     inkscape:window-y="29"
     inkscape:window-maximized="1"
     inkscape:current-layer="svg2"
     fit-margin-top="0"
     fit-margin-left="0"
     fit-margin-right="0"
     fit-margin-bottom="0" />
  <title
     id="title4">Image cloud</title>
  <desc
     id="desc6">Vector image cloud</desc>
  <path
     inkscape:connector-curvature="0"
     style="fill:#ffffff;stroke:none"
     mask="none"
     clip-path="none"
     d="m 168.22221,-53.177878 c -5.65939,0 -10.25249,4.697326 -10.25249,10.38179 l 0,15.726235 c -2.05708,0.800597 -3.51268,2.797313 -3.51268,5.139713 l 0,5.516842 c 0,3.049435 2.46758,5.516843 5.51685,5.516843 l 0,5.5168423 c 0,3.049434 2.46758,5.51684102 5.51684,5.51684102 l 11.03368,0 c 3.04944,0 5.51684,-2.46758002 5.51684,-5.51684102 l 0,-5.5168423 c 3.04944,0 5.51685,-2.467581 5.51685,-5.516843 l 0,-5.516842 c 0,-1.840434 -0.90315,-3.449569 -2.28971,-4.439331 l 0,-16.426617 c 0,-5.684464 -4.5931,-10.38179 -10.25249,-10.38179 -1.19183,0 -2.33522,0.21063 -3.39954,0.592633 -1.06295,-0.380911 -2.2041,-0.592633 -3.39415,-0.592633 z m -2.37052,5.753896 c -0.6944,1.398318 -1.08828,2.969355 -1.08828,4.627894 l 0,15.451471 -1.62165,0 0,-15.451471 c 0,-2.058047 1.09036,-3.774371 2.70993,-4.627894 z m 11.53473,0 c 1.61957,0.853523 2.70993,2.569847 2.70993,4.627894 l 0,15.451471 -1.62165,0 0,-15.451471 c 0,-1.658539 -0.39388,-3.229576 -1.08828,-4.627894 z m -5.77006,0.71654 c 1.03714,0.942304 1.6863,2.325928 1.6863,3.911354 l 0,15.451472 -3.36721,0 0,-15.451472 c 0,-1.583903 0.64553,-2.969109 1.68091,-3.911354 z"
     id="path3-4-5" />
  <path
     inkscape:connector-curvature="0"
     id="path4176"
     style="fill:none;stroke:#ffffff;stroke-width:4.50000000999999994;stroke-linecap:round;stroke-linejoin:round;stroke-miterlimit:4;stroke-opacity:1;stroke-dasharray:none"
     d="m 34.743275,5.3319654 c 0.34706,14.8093756 -24.189038,15.1432206 -24.189038,8.4380356 0,-6.4928297 24.001524,-4.5002873 24.001524,7.687983 0,12.188274 -24.001504,14.806641 -24.001504,7.312965 0,-6.750426 24.001506,-4.12526 24.001506,7.8755 0,12.000758 -24.001526,13.910758 -24.001526,6.937938 0,-6.757226 24.001526,-3.375214 24.001526,8.438032"
     sodipodi:nodetypes="csssssc" />
</svg>
