<?xml version="1.0" encoding="UTF-8" standalone="no"?>
<svg
   xmlns:dc="http://purl.org/dc/elements/1.1/"
   xmlns:cc="http://creativecommons.org/ns#"
   xmlns:rdf="http://www.w3.org/1999/02/22-rdf-syntax-ns#"
   xmlns:svg="http://www.w3.org/2000/svg"
   xmlns="http://www.w3.org/2000/svg"
   xmlns:sodipodi="http://sodipodi.sourceforge.net/DTD/sodipodi-0.dtd"
   xmlns:inkscape="http://www.inkscape.org/namespaces/inkscape"
   version="1.2"
   width="45.301159"
   height="57.476299"
   viewBox="0 0 45.301159 57.476299"
   id="svg2"
   inkscape:version="0.91 r13725"
   sodipodi:docname="theme8.svg">
  <metadata
     id="metadata16">
    <rdf:RDF>
      <cc:Work
         rdf:about="">
        <dc:format>image/svg+xml</dc:format>
        <dc:type
           rdf:resource="http://purl.org/dc/dcmitype/StillImage" />
        <dc:title>Image cloud</dc:title>
      </cc:Work>
    </rdf:RDF>
  </metadata>
  <defs
     id="defs14" />
  <sodipodi:namedview
     pagecolor="#ffffff"
     bordercolor="#666666"
     borderopacity="1"
     objecttolerance="10"
     gridtolerance="10"
     guidetolerance="10"
     inkscape:pageopacity="0"
     inkscape:pageshadow="2"
     inkscape:window-width="1920"
     inkscape:window-height="1152"
     id="namedview12"
     showgrid="false"
     inkscape:zoom="7.9999999"
     inkscape:cx="-2.7095758"
     inkscape:cy="28.602728"
     inkscape:window-x="0"
     inkscape:window-y="29"
     inkscape:window-maximized="1"
     inkscape:current-layer="svg2"
     fit-margin-top="0"
     fit-margin-left="0"
     fit-margin-right="0"
     fit-margin-bottom="0"
     showguides="true"
     inkscape:guide-bbox="true" />
  <title
     id="title4">Image cloud</title>
  <desc
     id="desc6">Vector image cloud</desc>
  <path
     inkscape:connector-curvature="0"
     d="m 44.048848,35.682485 c -0.067,0.25115 -0.23445,0.41859 -0.50231,0.5023 l -7.33368,2.41107 0,7.68529 c 0,0.2679 -0.10883,0.48557 -0.32649,0.653 -0.25115,0.16744 -0.49393,0.20095 -0.72834,0.10052 l -7.33368,-2.36084 -4.52077,6.22861 c -0.16743,0.21766 -0.38509,0.32649 -0.65299,0.32649 -0.26789,0 -0.48556,-0.10883 -0.653,-0.32649 l -4.52076,-6.22861 -7.333671,2.36084 c -0.2344096,0.10047 -0.4771896,0.067 -0.7283496,-0.10052 -0.21767,-0.16743 -0.3265,-0.3851 -0.3265,-0.653 l 0,-7.68529 -7.33367,-2.41107 c -0.2679,-0.0837 -0.43534,-0.25115 -0.50232,-0.5023 -0.0837,-0.28464 -0.0502,-0.52742 0.10053,-0.72835 l 4.52076,-6.2286 -4.52076,-6.2286 c -0.15069,-0.21767 -0.1842,-0.46045 -0.10053,-0.72834 0.067,-0.25115 0.23446,-0.41859 0.50232,-0.50232 l 7.33367,-2.41106 0,-7.6853 c 0,-0.26789 0.10883,-0.48556 0.3265,-0.653 0.25116,-0.16743 0.49394,-0.20089 0.7283496,-0.1004 l 7.333671,2.36085 4.52076,-6.2286004 c 0.15069,-0.20093 0.36836,-0.30139 0.653,-0.30139 0.28463,0 0.5023,0.10046 0.65299,0.30139 l 4.52077,6.2286004 7.33368,-2.36085 c 0.23441,-0.10045 0.47719,-0.067 0.72834,0.1004 0.21766,0.16744 0.32649,0.38511 0.32649,0.653 l 0,7.6853 7.33368,2.41106 c 0.26789,0.0837 0.43533,0.25117 0.50231,0.50232 0.0837,0.26789 0.0502,0.51067 -0.10052,0.72834 l -4.52075,6.2286 4.52075,6.2286 c 0.15069,0.20093 0.18419,0.44371 0.10052,0.72835 z"
     id="path4-8"
     style="fill:none;stroke:#333333;stroke-width:2.7;stroke-linecap:round;stroke-linejoin:round;stroke-miterlimit:4;stroke-dasharray:none;stroke-opacity:1"
     sodipodi:nodetypes="cccsccccsccccscccccccccsccccsccccsccccccc" />
</svg>
