<?xml version="1.0" encoding="UTF-8" standalone="no"?>
<svg
   xmlns:dc="http://purl.org/dc/elements/1.1/"
   xmlns:cc="http://creativecommons.org/ns#"
   xmlns:rdf="http://www.w3.org/1999/02/22-rdf-syntax-ns#"
   xmlns:svg="http://www.w3.org/2000/svg"
   xmlns="http://www.w3.org/2000/svg"
   xml:space="preserve"
   enable-background="new 0 0 595.28 841.89"
   viewBox="0 0 999.99995 799.99999"
   height="800"
   width="1000"
   y="0px"
   x="0px"
   id="Layer_1"
   version="1.1"><metadata
     id="metadata51"><rdf:RDF><cc:Work
         rdf:about=""><dc:format>image/svg+xml</dc:format><dc:type
           rdf:resource="http://purl.org/dc/dcmitype/StillImage" /><dc:title></dc:title></cc:Work></rdf:RDF></metadata><defs
     id="defs49" /><g
     transform="translate(0.03791003,0.02992173)"
     id="g4180"><polygon
       points="212.285,-941.777 660.134,-554.794 212.285,-554.794 -235.565,-554.794 "
       id="polygon15"
       transform="matrix(1.1091502,0,0,2.0540738,264.50665,1937.3617)"
       style="fill:#ffffff;stroke:#000000;stroke-width:2.16757441;stroke-linecap:butt;stroke-linejoin:miter;stroke-miterlimit:7.5999999;stroke-dasharray:none;stroke-opacity:1" /><polygon
       stroke-miterlimit="10"
       points="-69.846,-699.72 97.877,-554.794 -69.846,-554.794 -237.564,-554.794 "
       id="polygon21"
       transform="matrix(1.1091502,0,0,2.0540738,266.72381,1937.3617)"
       style="fill:none;stroke:#000000;stroke-width:2.16757441;stroke-linecap:butt;stroke-linejoin:miter;stroke-miterlimit:7.5999999;stroke-dasharray:none;stroke-opacity:1" /><polygon
       stroke-miterlimit="10"
       points="-69.846,-554.794 -237.564,-554.794 -69.846,-699.72 97.877,-554.794 "
       id="polygon21-9"
       transform="matrix(1.1091502,0,0,2.0540738,888.13411,1937.3617)"
       style="fill:none;stroke:#000000;stroke-width:2.16757441;stroke-linecap:butt;stroke-linejoin:miter;stroke-miterlimit:7.5999999;stroke-dasharray:none;stroke-opacity:1" /><path
       style="fill:none;stroke:#000000;stroke-width:3.21428299;stroke-linecap:butt;stroke-linejoin:miter;stroke-miterlimit:7.5999999;stroke-dasharray:none;stroke-opacity:1"
       d="m 498.6227,302.48997 -212.80388,347.26656 428.26739,0 z"
       id="path3015" /><polygon
       style="fill:none;stroke:#000000;stroke-width:2.16757441;stroke-linecap:butt;stroke-linejoin:miter;stroke-miterlimit:7.5999999;stroke-dasharray:none;stroke-opacity:1"
       transform="matrix(1.1091502,0,0,2.0540738,577.42896,1440.1588)"
       id="polygon4138"
       points="-69.846,-554.794 -237.564,-554.794 -69.846,-699.72 97.877,-554.794 "
       stroke-miterlimit="10" /></g></svg>