<?xml version="1.0" encoding="UTF-8" standalone="no"?>
<!-- Created with Inkscape (http://www.inkscape.org/) -->

<svg
   xmlns:dc="http://purl.org/dc/elements/1.1/"
   xmlns:cc="http://creativecommons.org/ns#"
   xmlns:rdf="http://www.w3.org/1999/02/22-rdf-syntax-ns#"
   xmlns:svg="http://www.w3.org/2000/svg"
   xmlns="http://www.w3.org/2000/svg"
   xmlns:sodipodi="http://sodipodi.sourceforge.net/DTD/sodipodi-0.dtd"
   xmlns:inkscape="http://www.inkscape.org/namespaces/inkscape"
   id="svg2"
   height="60"
   width="275.51865"
   version="1.1"
   inkscape:version="0.48.5 r10040"
   sodipodi:docname="ivmlogo.svg">
  <defs
     id="defs16" />
  <sodipodi:namedview
     pagecolor="#ffffff"
     bordercolor="#666666"
     borderopacity="1"
     objecttolerance="10"
     gridtolerance="10"
     guidetolerance="10"
     inkscape:pageopacity="0"
     inkscape:pageshadow="2"
     inkscape:window-width="1920"
     inkscape:window-height="1152"
     id="namedview14"
     showgrid="false"
     inkscape:zoom="3.1984282"
     inkscape:cx="193.22617"
     inkscape:cy="48.852626"
     inkscape:window-x="0"
     inkscape:window-y="29"
     inkscape:window-maximized="1"
     inkscape:current-layer="text3061-1-8"
     fit-margin-top="0"
     fit-margin-left="0"
     fit-margin-right="0"
     fit-margin-bottom="0" />
  <metadata
     id="metadata8">
    <rdf:RDF>
      <cc:Work
         rdf:about="">
        <dc:format>image/svg+xml</dc:format>
        <dc:type
           rdf:resource="http://purl.org/dc/dcmitype/StillImage" />
        <dc:title />
      </cc:Work>
    </rdf:RDF>
  </metadata>
  <g
     style="font-size:20.93642807px;font-style:normal;font-variant:normal;font-weight:normal;font-stretch:normal;text-align:start;line-height:125%;letter-spacing:0px;word-spacing:0px;writing-mode:lr-tb;text-anchor:start;fill:#ff9955;font-family:Crimson Text"
     id="text3061-1-8"
     transform="translate(-0.24068076,-24.999999)">
    <g
       id="g3214"
       transform="translate(-24.45932,22.795998)"
       style="fill:#ffffff">
      <rect
         transform="translate(0,5)"
         x="24.700001"
         y="19.998001"
         width="2.6575999"
         height="37.206001"
         style="color:#000000;fill:#ffffff;fill-rule:nonzero;enable-background:accumulate"
         id="rect2987" />
      <rect
         transform="translate(0,5)"
         x="35.095001"
         y="19.998001"
         width="4.3772001"
         height="37.206001"
         style="color:#000000;fill:#ffffff;fill-rule:nonzero;enable-background:accumulate"
         id="rect2987-2" />
      <rect
         transform="translate(0,5)"
         x="54.089001"
         y="19.998001"
         width="6.7220998"
         height="37.206001"
         style="color:#000000;fill:#ffffff;fill-rule:nonzero;enable-background:accumulate"
         id="rect2987-2-6" />
      <rect
         transform="translate(0,5)"
         x="46.195"
         y="19.998001"
         width="2.9702001"
         height="37.206001"
         style="color:#000000;fill:#ffffff;fill-rule:nonzero;enable-background:accumulate"
         id="rect2987-2-6-3" />
      <rect
         transform="translate(0,5)"
         x="66.830002"
         y="19.998001"
         width="13.913"
         height="37.206001"
         style="color:#000000;fill:#ffffff;fill-rule:nonzero;enable-background:accumulate"
         id="rect2987-2-6-38" />
      <g
         id="text3061-1"
         style="font-size:20.93642807px;font-style:normal;font-variant:normal;font-weight:normal;font-stretch:normal;text-align:start;line-height:125%;letter-spacing:0px;word-spacing:0px;writing-mode:lr-tb;text-anchor:start;fill:#ffffff;font-family:Crimson Text">
        <path
           inkscape:connector-curvature="0"
           id="path3125"
           style="letter-spacing:0.30000001px;fill:#ffffff;font-family:Qubo;-inkscape-font-specification:Qubo Semi-Light"
           d="m 140.16516,39.871109 0,-14.425199 -1.65397,0 0,14.425199 1.65397,0" />
        <path
           inkscape:connector-curvature="0"
           id="path3127"
           style="letter-spacing:0.30000001px;fill:#ffffff;font-family:Qubo;-inkscape-font-specification:Qubo Semi-Light"
           d="m 145.75717,39.871109 0,-8.311762 c 0.94214,-0.439664 1.94709,-0.774648 3.45451,-0.774648 1.00495,0 1.57024,0.314047 1.80054,0.963076 0.10468,0.29311 0.20936,1.130568 0.20936,2.135516 l 0,5.987818 1.5493,0 0,-6.322801 c 0,-1.004948 0,-1.82147 -0.14656,-2.449562 -0.33498,-1.381803 -1.40274,-1.800533 -2.78454,-1.800533 -2.15645,0 -3.34983,0.837458 -4.08261,1.612105 l -0.0628,-1.360868 -1.48648,0 0,10.321659 1.54929,0" />
        <path
           inkscape:connector-curvature="0"
           id="path3129"
           style="letter-spacing:0.30000001px;fill:#ffffff;font-family:Qubo;-inkscape-font-specification:Qubo Semi-Light"
           d="m 155.43931,39.494253 c 1.23525,0.52341 2.63799,0.628093 3.66387,0.628093 2.59612,0 3.85231,-1.29806 3.85231,-3.1614 0,-1.360867 -0.60716,-2.135517 -2.63799,-2.763609 l -1.23525,-0.376856 c -1.40274,-0.439664 -1.75866,-0.963076 -1.75866,-1.633041 0,-0.984011 0.52341,-1.549296 2.34488,-1.549296 0.77465,0 1.73772,0.04187 2.61705,0.209365 l 0.20937,-1.277123 c -0.83746,-0.188427 -1.75866,-0.29311 -2.78455,-0.29311 -2.40769,0 -3.83136,1.109633 -3.83136,3.035782 0,1.298058 0.6909,2.261135 2.28207,2.742673 l 1.10963,0.355919 c 1.8424,0.607156 2.17738,1.004949 2.17738,1.75866 0,0.984011 -0.50247,1.549295 -2.26113,1.549295 -0.96307,0 -2.32394,-0.125618 -3.37076,-0.481537 l -0.37686,1.256185" />
        <path
           inkscape:connector-curvature="0"
           id="path3131"
           style="letter-spacing:0.30000001px;fill:#ffffff;font-family:Qubo;-inkscape-font-specification:Qubo Semi-Light"
           d="m 170.60156,39.871109 -0.0838,-1.151504 c -0.33498,0.02094 -0.79558,0.02094 -1.25619,0.02094 -0.81651,0 -1.1515,-0.230301 -1.31899,-0.523411 -0.16749,-0.272173 -0.27217,-0.732776 -0.27217,-1.570232 l 0,-5.820327 2.7008,0 0,-1.277122 -2.7008,0 0,-3.014846 -1.46555,0 c -0.0838,2.910161 -0.0838,3.014846 -0.0838,3.014846 l -1.65398,0 0,1.277122 1.65398,0 0,5.778454 c 0,1.025884 0.0838,1.842406 0.4606,2.428626 0.37686,0.628092 1.27713,0.984012 2.17739,0.984012 0.60716,0 1.27712,-0.04187 1.84241,-0.146555" />
        <path
           inkscape:connector-curvature="0"
           id="path3133"
           style="letter-spacing:0.30000001px;fill:#ffffff;font-family:Qubo;-inkscape-font-specification:Qubo Semi-Light"
           d="m 174.40252,39.871109 0,-10.321659 -1.57023,0 0,10.321659 1.57023,0 m 0.25124,-13.734297 c 0,-0.81652 -0.39779,-1.088694 -1.02589,-1.088694 -0.64903,0 -1.06775,0.334984 -1.06775,1.109631 0,0.81652 0.43966,1.088694 1.06775,1.088694 0.64903,0 1.02589,-0.314047 1.02589,-1.109631" />
        <path
           inkscape:connector-curvature="0"
           id="path3135"
           style="letter-spacing:0.30000001px;fill:#ffffff;font-family:Qubo;-inkscape-font-specification:Qubo Semi-Light"
           d="m 183.26454,39.871109 -0.0838,-1.151504 c -0.33498,0.02094 -0.79558,0.02094 -1.25618,0.02094 -0.81652,0 -1.15151,-0.230301 -1.319,-0.523411 -0.16749,-0.272173 -0.27217,-0.732776 -0.27217,-1.570232 l 0,-5.820327 2.7008,0 0,-1.277122 -2.7008,0 0,-3.014846 -1.46555,0 c -0.0837,2.910161 -0.0837,3.014846 -0.0837,3.014846 l -1.65398,0 0,1.277122 1.65398,0 0,5.778454 c 0,1.025884 0.0837,1.842406 0.4606,2.428626 0.37686,0.628092 1.27713,0.984012 2.17739,0.984012 0.60716,0 1.27712,-0.04187 1.84241,-0.146555" />
        <path
           inkscape:connector-curvature="0"
           id="path3137"
           style="letter-spacing:0.30000001px;fill:#ffffff;font-family:Qubo;-inkscape-font-specification:Qubo Semi-Light"
           d="m 193.95359,39.871109 0,-10.321659 -1.57024,0 0,8.269889 c -0.96307,0.52341 -1.94709,0.816521 -3.30795,0.816521 -0.96308,0 -1.65398,-0.334984 -1.90522,-1.004949 -0.10468,-0.293109 -0.2303,-1.214314 -0.2303,-2.198325 l 0,-5.883136 -1.57023,0 0,6.15531 c 0,1.004947 0.0628,1.926152 0.2303,2.57518 0.35592,1.339931 1.5493,1.842406 2.97297,1.842406 1.98896,0 3.11953,-0.795585 3.81043,-1.591168 l 0.0837,1.339931 1.48649,0" />
        <path
           inkscape:connector-curvature="0"
           id="path3139"
           style="letter-spacing:0.30000001px;fill:#ffffff;font-family:Qubo;-inkscape-font-specification:Qubo Semi-Light"
           d="m 202.75639,39.871109 -0.0837,-1.151504 c -0.33499,0.02094 -0.79559,0.02094 -1.25619,0.02094 -0.81652,0 -1.1515,-0.230301 -1.31899,-0.523411 -0.16749,-0.272173 -0.27218,-0.732776 -0.27218,-1.570232 l 0,-5.820327 2.7008,0 0,-1.277122 -2.7008,0 0,-3.014846 -1.46555,0 c -0.0837,2.910161 -0.0837,3.014846 -0.0837,3.014846 l -1.65398,0 0,1.277122 1.65398,0 0,5.778454 c 0,1.025884 0.0837,1.842406 0.4606,2.428626 0.37685,0.628092 1.27712,0.984012 2.17739,0.984012 0.60715,0 1.27712,-0.04187 1.8424,-0.146555" />
        <path
           inkscape:connector-curvature="0"
           id="path3141"
           style="letter-spacing:0.30000001px;fill:#ffffff;font-family:Qubo;-inkscape-font-specification:Qubo Semi-Light"
           d="m 213.17326,34.951048 0,-0.481537 c 0,-1.40274 -0.10468,-2.679864 -0.54434,-3.433575 -0.69091,-1.256184 -1.88428,-1.779596 -3.64294,-1.779596 -2.74267,0 -4.81538,1.7796 -4.81538,5.443471 0,3.454507 1.63304,5.443472 4.7735,5.443472 1.63304,0 2.82642,-0.272175 4.0198,-0.795585 l -0.37686,-1.088694 c -0.98401,0.272173 -2.03083,0.439665 -3.37076,0.439665 -2.28207,0 -3.43358,-1.339934 -3.45451,-3.747621 l 7.41149,0 m -1.48648,-1.256185 -5.88314,0 c 0.16749,-2.533306 1.71679,-3.161401 3.07766,-3.161401 2.00989,0 2.78454,0.921205 2.80548,3.161401" />
        <path
           inkscape:connector-curvature="0"
           id="path3143"
           style="letter-spacing:0.30000001px;fill:#ffffff;font-family:Qubo;-inkscape-font-specification:Qubo Semi-Light"
           d="m 223.03306,39.871109 0,-9.044537 2.7008,0 0,-1.277122 -2.7008,0 0,-1.256186 c 0,-1.004947 0.10468,-1.549296 0.37685,-1.884278 0.35592,-0.460601 0.98402,-0.690902 2.34488,-0.690902 0.2303,0 0.52341,0 0.79559,0.02094 l 0.10468,-1.277122 c -0.37686,-0.04187 -1.06776,-0.06281 -1.40274,-0.06281 -1.29806,0 -2.34488,0.334983 -2.95204,0.942139 -0.54434,0.544347 -0.83746,1.360869 -0.83746,2.972973 l 0,1.235249 -1.65397,0 0,1.277122 1.65397,0 0,9.044537 1.57024,0" />
        <path
           inkscape:connector-curvature="0"
           id="path3145"
           style="letter-spacing:0.30000001px;fill:#ffffff;font-family:Qubo;-inkscape-font-specification:Qubo Semi-Light"
           d="m 237.02908,34.616066 c 0,-4.187282 -1.94709,-5.359726 -4.7735,-5.359726 -2.4705,0 -4.87819,1.381808 -4.87819,5.422535 0,4.082599 2.03083,5.464408 4.7735,5.464408 2.74267,0 4.87819,-1.528364 4.87819,-5.527217 m -1.6121,0.104682 c 0,3.287016 -1.319,4.124476 -3.22421,4.124476 -1.61211,0 -3.22421,-0.795588 -3.22421,-4.187286 0,-3.391698 1.59117,-4.103539 3.22421,-4.103539 1.71678,0 3.22421,0.628096 3.22421,4.166349" />
        <path
           inkscape:connector-curvature="0"
           id="path3147"
           style="letter-spacing:0.30000001px;fill:#ffffff;font-family:Qubo;-inkscape-font-specification:Qubo Semi-Light"
           d="m 241.75812,39.871109 0,-8.186143 c 0.81652,-0.502474 1.69585,-0.753712 2.97297,-0.753712 0.25124,0 0.50248,0.04187 0.71184,0.06281 l 0.20936,-1.591169 c -0.25123,-0.04187 -0.52341,-0.08375 -0.75371,-0.08375 -1.75866,0 -2.65892,0.984013 -3.14046,1.695851 l -0.0628,-1.46555 -1.48649,0 0,10.321659 1.5493,0" />
      </g>
      <path
         transform="translate(0,5)"
         d="m 100.74412,56.689941 0,-1.423677 -7.411499,0 0,-5.359725 6.720589,0 0,-1.423677 -6.720589,0 0,-4.794442 7.076509,0 0,-1.423678 -8.730487,0 0,14.425199 9.065477,0"
         style="font-size:20.93642807px;font-style:normal;font-variant:normal;font-weight:normal;font-stretch:normal;text-align:start;line-height:125%;letter-spacing:0.30000001px;word-spacing:0px;writing-mode:lr-tb;text-anchor:start;fill:#ffffff;font-family:Qubo;-inkscape-font-specification:Qubo Semi-Light"
         id="path3084"
         inkscape:connector-curvature="0" />
      <path
         transform="translate(0,5)"
         d="m 105.01746,56.689941 0,-8.311762 c 0.94214,-0.439664 1.94709,-0.774647 3.45451,-0.774647 1.00495,0 1.57023,0.314047 1.80053,0.963075 0.10468,0.29311 0.20937,1.130568 0.20937,2.135516 l 0,5.987818 1.54929,0 0,-6.322801 c 0,-1.004947 0,-1.82147 -0.14655,-2.449562 -0.33499,-1.381803 -1.40275,-1.800533 -2.78455,-1.800533 -2.15645,0 -3.34983,0.837458 -4.0826,1.612105 l -0.0628,-1.360868 -1.48649,0 0,10.321659 1.5493,0"
         style="font-size:20.93642807px;font-style:normal;font-variant:normal;font-weight:normal;font-stretch:normal;text-align:start;line-height:125%;letter-spacing:0.30000001px;word-spacing:0px;writing-mode:lr-tb;text-anchor:start;fill:#ffffff;font-family:Qubo;-inkscape-font-specification:Qubo Semi-Light"
         id="path3086"
         inkscape:connector-curvature="0" />
      <path
         transform="translate(0,5)"
         d="m 119.27257,56.689941 4.10354,-10.321659 -1.65398,0 c -1.98896,5.150357 -2.49143,6.511232 -3.18234,8.646745 -0.66996,-2.114577 -1.17244,-3.538261 -3.07765,-8.646745 l -1.71679,0 3.95699,10.321659 1.57023,0"
         style="font-size:20.93642807px;font-style:normal;font-variant:normal;font-weight:normal;font-stretch:normal;text-align:start;line-height:125%;letter-spacing:0.30000001px;word-spacing:0px;writing-mode:lr-tb;text-anchor:start;fill:#ffffff;font-family:Qubo;-inkscape-font-specification:Qubo Semi-Light"
         id="path3088"
         inkscape:connector-curvature="0" />
      <path
         transform="translate(0,5)"
         d="m 127.02463,56.689941 0,-10.321659 -1.57023,0 0,10.321659 1.57023,0 m 0.25124,-13.734296 c 0,-0.81652 -0.3978,-1.088695 -1.02589,-1.088695 -0.64903,0 -1.06776,0.334984 -1.06776,1.109631 0,0.81652 0.43967,1.088694 1.06776,1.088694 0.64903,0 1.02589,-0.314047 1.02589,-1.10963"
         style="font-size:20.93642807px;font-style:normal;font-variant:normal;font-weight:normal;font-stretch:normal;text-align:start;line-height:125%;letter-spacing:0.30000001px;word-spacing:0px;writing-mode:lr-tb;text-anchor:start;fill:#ffffff;font-family:Qubo;-inkscape-font-specification:Qubo Semi-Light"
         id="path3090"
         inkscape:connector-curvature="0" />
      <path
         transform="translate(0,5)"
         d="m 132.57869,56.689941 0,-8.186143 c 0.81652,-0.502474 1.69585,-0.753711 2.97297,-0.753711 0.25124,0 0.50248,0.04187 0.71184,0.06281 l 0.20937,-1.591169 c -0.25124,-0.04187 -0.52342,-0.08375 -0.75372,-0.08375 -1.75865,0 -2.65892,0.984012 -3.14046,1.69585 l -0.0628,-1.46555 -1.48649,0 0,10.321659 1.5493,0"
         style="font-size:20.93642807px;font-style:normal;font-variant:normal;font-weight:normal;font-stretch:normal;text-align:start;line-height:125%;letter-spacing:0.30000001px;word-spacing:0px;writing-mode:lr-tb;text-anchor:start;fill:#ffffff;font-family:Qubo;-inkscape-font-specification:Qubo Semi-Light"
         id="path3092"
         inkscape:connector-curvature="0" />
      <path
         transform="translate(0,5)"
         d="m 147.30062,51.434898 c 0,-4.187281 -1.94709,-5.359726 -4.77351,-5.359726 -2.47049,0 -4.87818,1.381809 -4.87818,5.422535 0,4.0826 2.03083,5.464408 4.7735,5.464408 2.74267,0 4.87819,-1.528363 4.87819,-5.527217 m -1.61211,0.104682 c 0,3.287016 -1.31899,4.124476 -3.22421,4.124476 -1.6121,0 -3.22421,-0.795587 -3.22421,-4.187285 0,-3.391698 1.59117,-4.10354 3.22421,-4.10354 1.71679,0 3.22421,0.628096 3.22421,4.166349"
         style="font-size:20.93642807px;font-style:normal;font-variant:normal;font-weight:normal;font-stretch:normal;text-align:start;line-height:125%;letter-spacing:0.30000001px;word-spacing:0px;writing-mode:lr-tb;text-anchor:start;fill:#ffffff;font-family:Qubo;-inkscape-font-specification:Qubo Semi-Light"
         id="path3094"
         inkscape:connector-curvature="0" />
      <path
         transform="translate(0,5)"
         d="m 152.02966,56.689941 0,-8.311762 c 0.94213,-0.439664 1.94709,-0.774647 3.45451,-0.774647 1.00494,0 1.57023,0.314047 1.80053,0.963075 0.10468,0.29311 0.20936,1.130568 0.20936,2.135516 l 0,5.987818 1.5493,0 0,-6.322801 c 0,-1.004947 0,-1.82147 -0.14656,-2.449562 -0.33498,-1.381803 -1.40274,-1.800533 -2.78454,-1.800533 -2.15645,0 -3.34983,0.837458 -4.0826,1.612105 l -0.0628,-1.360868 -1.48649,0 0,10.321659 1.5493,0"
         style="font-size:20.93642807px;font-style:normal;font-variant:normal;font-weight:normal;font-stretch:normal;text-align:start;line-height:125%;letter-spacing:0.30000001px;word-spacing:0px;writing-mode:lr-tb;text-anchor:start;fill:#ffffff;font-family:Qubo;-inkscape-font-specification:Qubo Semi-Light"
         id="path3096"
         inkscape:connector-curvature="0" />
      <path
         transform="translate(0,5)"
         d="m 164.43353,56.689941 0,-8.311762 c 0.98401,-0.502473 2.36581,-0.774647 3.32889,-0.774647 0.94214,0 1.46555,0.314047 1.71678,0.963075 0.10469,0.29311 0.18843,1.130568 0.18843,2.135516 l 0,5.987818 1.57023,0 0,-6.322801 c 0,-0.795583 0,-1.402741 -0.0837,-1.968024 0.96307,-0.52341 2.38675,-0.795584 3.37076,-0.795584 0.96308,0 1.46555,0.314047 1.71679,0.963075 0.12562,0.29311 0.20937,1.130568 0.20937,2.135516 l 0,5.987818 1.54929,0 0,-6.322801 c 0,-1.004947 0,-1.82147 -0.14655,-2.449562 -0.33499,-1.381803 -1.33994,-1.800533 -2.63799,-1.800533 -1.92615,0 -3.37077,0.732776 -4.14542,1.653978 -0.4606,-1.277121 -1.36087,-1.653978 -2.61705,-1.653978 -1.96802,0 -3.24515,0.732776 -4.01979,1.612105 l -0.0628,-1.360868 -1.48649,0 0,10.321659 1.5493,0"
         style="font-size:20.93642807px;font-style:normal;font-variant:normal;font-weight:normal;font-stretch:normal;text-align:start;line-height:125%;letter-spacing:0.30000001px;word-spacing:0px;writing-mode:lr-tb;text-anchor:start;fill:#ffffff;font-family:Qubo;-inkscape-font-specification:Qubo Semi-Light"
         id="path3098"
         inkscape:connector-curvature="0" />
      <path
         transform="translate(0,5)"
         d="m 190.05777,51.769881 0,-0.481538 c 0,-1.402739 -0.10468,-2.679864 -0.54435,-3.433574 -0.6909,-1.256185 -1.88428,-1.779597 -3.64294,-1.779597 -2.74267,0 -4.81537,1.7796 -4.81537,5.443472 0,3.454507 1.63304,5.443471 4.7735,5.443471 1.63304,0 2.82642,-0.272174 4.0198,-0.795584 l -0.37686,-1.088695 c -0.98401,0.272174 -2.03084,0.439665 -3.37077,0.439665 -2.28206,0 -3.43357,-1.339933 -3.45451,-3.74762 l 7.4115,0 m -1.48649,-1.256186 -5.88313,0 c 0.16749,-2.533305 1.71679,-3.161401 3.07765,-3.161401 2.0099,0 2.78455,0.921206 2.80548,3.161401"
         style="font-size:20.93642807px;font-style:normal;font-variant:normal;font-weight:normal;font-stretch:normal;text-align:start;line-height:125%;letter-spacing:0.30000001px;word-spacing:0px;writing-mode:lr-tb;text-anchor:start;fill:#ffffff;font-family:Qubo;-inkscape-font-specification:Qubo Semi-Light"
         id="path3100"
         inkscape:connector-curvature="0" />
      <path
         transform="translate(0,5)"
         d="m 194.55716,56.689941 0,-8.311762 c 0.94214,-0.439664 1.94709,-0.774647 3.45451,-0.774647 1.00495,0 1.57023,0.314047 1.80053,0.963075 0.10469,0.29311 0.20937,1.130568 0.20937,2.135516 l 0,5.987818 1.54929,0 0,-6.322801 c 0,-1.004947 0,-1.82147 -0.14655,-2.449562 -0.33498,-1.381803 -1.40274,-1.800533 -2.78455,-1.800533 -2.15645,0 -3.34983,0.837458 -4.0826,1.612105 l -0.0628,-1.360868 -1.48649,0 0,10.321659 1.5493,0"
         style="font-size:20.93642807px;font-style:normal;font-variant:normal;font-weight:normal;font-stretch:normal;text-align:start;line-height:125%;letter-spacing:0.30000001px;word-spacing:0px;writing-mode:lr-tb;text-anchor:start;fill:#ffffff;font-family:Qubo;-inkscape-font-specification:Qubo Semi-Light"
         id="path3102"
         inkscape:connector-curvature="0" />
      <path
         transform="translate(0,5)"
         d="m 210.26899,56.689941 -0.0837,-1.151503 c -0.33499,0.02094 -0.79559,0.02094 -1.25619,0.02094 -0.81652,0 -1.1515,-0.230301 -1.31899,-0.52341 -0.16749,-0.272174 -0.27218,-0.732776 -0.27218,-1.570233 l 0,-5.820327 2.7008,0 0,-1.277122 -2.7008,0 0,-3.014845 -1.46555,0 c -0.0837,2.91016 -0.0837,3.014845 -0.0837,3.014845 l -1.65398,0 0,1.277122 1.65398,0 0,5.778455 c 0,1.025884 0.0837,1.842406 0.4606,2.428625 0.37685,0.628092 1.27712,0.984012 2.17739,0.984012 0.60715,0 1.27712,-0.04187 1.8424,-0.146555"
         style="font-size:20.93642807px;font-style:normal;font-variant:normal;font-weight:normal;font-stretch:normal;text-align:start;line-height:125%;letter-spacing:0.30000001px;word-spacing:0px;writing-mode:lr-tb;text-anchor:start;fill:#ffffff;font-family:Qubo;-inkscape-font-specification:Qubo Semi-Light"
         id="path3104"
         inkscape:connector-curvature="0" />
      <path
         transform="translate(0,5)"
         d="m 221.0408,56.857433 0.14655,-1.130567 c -0.73277,-0.188428 -1.1515,-0.35592 -1.36086,-0.837457 -0.12562,-0.314047 -0.18843,-0.753712 -0.18843,-1.381805 0,-1.151502 0.0419,-2.721736 0.0419,-3.768557 0,-1.779594 -0.14655,-2.470499 -0.85839,-3.056718 -0.54435,-0.460601 -1.48649,-0.607157 -2.55425,-0.607157 -0.96307,0 -2.61705,0.230301 -3.74762,0.523411 l 0.18843,1.214313 c 1.10963,-0.146555 2.40769,-0.230301 3.09859,-0.230301 0.90027,0 1.65398,0.146556 2.03084,0.753712 0.20936,0.314046 0.27217,1.088695 0.27217,1.884278 l 0,0.774648 c -2.36581,0 -3.93605,0.167492 -4.92006,0.544347 -0.96308,0.376855 -1.46555,1.193378 -1.46555,2.261134 0,1.842404 1.29806,3.077655 3.28702,3.077655 1.59117,0 2.57518,-0.607157 3.28702,-1.444613 0.25123,0.628092 0.6909,1.40274 2.74267,1.423677 m -2.86829,-2.009897 c -0.79558,0.397791 -1.73773,0.690902 -2.78455,0.690902 -1.10963,0 -2.0727,-0.607158 -2.0727,-1.737724 0,-0.586219 0.20936,-1.004948 0.79558,-1.256185 0.60716,-0.272174 2.11458,-0.418729 3.99886,-0.439665 0,1.779594 0,2.470498 0.0628,2.742672"
         style="font-size:20.93642807px;font-style:normal;font-variant:normal;font-weight:normal;font-stretch:normal;text-align:start;line-height:125%;letter-spacing:0.30000001px;word-spacing:0px;writing-mode:lr-tb;text-anchor:start;fill:#ffffff;font-family:Qubo;-inkscape-font-specification:Qubo Semi-Light"
         id="path3106"
         inkscape:connector-curvature="0" />
      <path
         transform="translate(0,5)"
         d="m 225.14436,56.689941 0,-15.241719 -1.54929,0 0,15.241719 1.54929,0"
         style="font-size:20.93642807px;font-style:normal;font-variant:normal;font-weight:normal;font-stretch:normal;text-align:start;line-height:125%;letter-spacing:0.30000001px;word-spacing:0px;writing-mode:lr-tb;text-anchor:start;fill:#ffffff;font-family:Qubo;-inkscape-font-specification:Qubo Semi-Light"
         id="path3108"
         inkscape:connector-curvature="0" />
      <path
         transform="translate(0,5)"
         d="m 232.89742,56.250276 c 1.13057,0.460601 2.84736,0.732775 4.29197,0.732775 3.41263,0 5.29691,-1.612107 5.29691,-4.166349 0,-2.135513 -0.94214,-3.098592 -3.76855,-4.124476 l -1.46555,-0.544347 c -1.75866,-0.628092 -2.2402,-1.381806 -2.2402,-2.470499 0,-1.57023 1.00495,-2.261134 3.07765,-2.261134 1.13057,0 2.32395,0.104682 3.43358,0.355919 l 0.27217,-1.423677 c -1.19337,-0.29311 -2.32394,-0.397792 -3.66387,-0.397792 -2.78455,0 -4.81538,1.298061 -4.81538,3.852303 0,2.009895 0.90027,3.119528 3.3917,3.998858 l 1.46555,0.52341 c 1.94709,0.669965 2.61705,1.360869 2.61705,2.617054 0,1.57023 -1.02588,2.533308 -3.55919,2.533308 -1.42368,0 -2.7008,-0.251238 -3.8523,-0.607157 l -0.48154,1.381804"
         style="font-size:20.93642807px;font-style:normal;font-variant:normal;font-weight:normal;font-stretch:normal;text-align:start;line-height:125%;letter-spacing:0.30000001px;word-spacing:0px;writing-mode:lr-tb;text-anchor:start;fill:#ffffff;font-family:Qubo;-inkscape-font-specification:Qubo Semi-Light"
         id="path3110"
         inkscape:connector-curvature="0" />
      <path
         transform="translate(0,5)"
         d="m 250.20696,56.689941 -0.0838,-1.151503 c -0.33498,0.02094 -0.79558,0.02094 -1.25618,0.02094 -0.81652,0 -1.15151,-0.230301 -1.319,-0.52341 -0.16749,-0.272174 -0.27217,-0.732776 -0.27217,-1.570233 l 0,-5.820327 2.7008,0 0,-1.277122 -2.7008,0 0,-3.014845 -1.46555,0 c -0.0837,2.91016 -0.0837,3.014845 -0.0837,3.014845 l -1.65398,0 0,1.277122 1.65398,0 0,5.778455 c 0,1.025884 0.0837,1.842406 0.4606,2.428625 0.37686,0.628092 1.27713,0.984012 2.17739,0.984012 0.60716,0 1.27713,-0.04187 1.84241,-0.146555"
         style="font-size:20.93642807px;font-style:normal;font-variant:normal;font-weight:normal;font-stretch:normal;text-align:start;line-height:125%;letter-spacing:0.30000001px;word-spacing:0px;writing-mode:lr-tb;text-anchor:start;fill:#ffffff;font-family:Qubo;-inkscape-font-specification:Qubo Semi-Light"
         id="path3112"
         inkscape:connector-curvature="0" />
      <path
         transform="translate(0,5)"
         d="m 260.89601,56.689941 0,-10.321659 -1.57024,0 0,8.269889 c -0.96307,0.523411 -1.94709,0.816521 -3.30795,0.816521 -0.96308,0 -1.65398,-0.334983 -1.90522,-1.004948 -0.10468,-0.29311 -0.2303,-1.214314 -0.2303,-2.198325 l 0,-5.883137 -1.57023,0 0,6.15531 c 0,1.004948 0.0628,1.926152 0.2303,2.575181 0.35592,1.33993 1.5493,1.842406 2.97297,1.842406 1.98896,0 3.11953,-0.795586 3.81043,-1.591169 l 0.0838,1.339931 1.48649,0"
         style="font-size:20.93642807px;font-style:normal;font-variant:normal;font-weight:normal;font-stretch:normal;text-align:start;line-height:125%;letter-spacing:0.30000001px;word-spacing:0px;writing-mode:lr-tb;text-anchor:start;fill:#ffffff;font-family:Qubo;-inkscape-font-specification:Qubo Semi-Light"
         id="path3114"
         inkscape:connector-curvature="0" />
      <path
         transform="translate(0,5)"
         d="m 273.17427,56.689941 0,-15.241719 -1.57023,0 0,5.087552 c -0.60716,-0.230301 -1.69585,-0.418729 -2.59612,-0.418729 -2.28207,0 -4.96193,1.02589 -4.96193,5.506281 0,3.768553 1.84241,5.234107 4.18729,5.234107 1.69584,0 2.7008,-0.669967 3.43357,-1.423677 l 0.12562,1.256185 1.3818,0 m -1.57023,-1.968024 c -0.9212,0.439665 -1.94709,0.732775 -2.88923,0.732775 -1.88427,0 -3.07765,-1.151506 -3.07765,-3.956985 0,-3.035779 1.27712,-4.061667 3.3917,-4.061667 0.77465,0 1.96802,0.06281 2.57518,0.230301 l 0,7.055576"
         style="font-size:20.93642807px;font-style:normal;font-variant:normal;font-weight:normal;font-stretch:normal;text-align:start;line-height:125%;letter-spacing:0.30000001px;word-spacing:0px;writing-mode:lr-tb;text-anchor:start;fill:#ffffff;font-family:Qubo;-inkscape-font-specification:Qubo Semi-Light"
         id="path3116"
         inkscape:connector-curvature="0" />
      <path
         transform="translate(0,5)"
         d="m 278.73389,56.689941 0,-10.321659 -1.57023,0 0,10.321659 1.57023,0 m 0.25124,-13.734296 c 0,-0.81652 -0.3978,-1.088695 -1.02589,-1.088695 -0.64903,0 -1.06776,0.334984 -1.06776,1.109631 0,0.81652 0.43967,1.088694 1.06776,1.088694 0.64903,0 1.02589,-0.314047 1.02589,-1.10963"
         style="font-size:20.93642807px;font-style:normal;font-variant:normal;font-weight:normal;font-stretch:normal;text-align:start;line-height:125%;letter-spacing:0.30000001px;word-spacing:0px;writing-mode:lr-tb;text-anchor:start;fill:#ffffff;font-family:Qubo;-inkscape-font-specification:Qubo Semi-Light"
         id="path3118"
         inkscape:connector-curvature="0" />
      <path
         transform="translate(0,5)"
         d="m 290.9248,51.769881 0,-0.481538 c 0,-1.402739 -0.10469,-2.679864 -0.54435,-3.433574 -0.6909,-1.256185 -1.88428,-1.779597 -3.64294,-1.779597 -2.74267,0 -4.81538,1.7796 -4.81538,5.443472 0,3.454507 1.63305,5.443471 4.77351,5.443471 1.63304,0 2.82642,-0.272174 4.01979,-0.795584 l -0.37685,-1.088695 c -0.98401,0.272174 -2.03084,0.439665 -3.37077,0.439665 -2.28207,0 -3.43357,-1.339933 -3.45451,-3.74762 l 7.4115,0 m -1.48649,-1.256186 -5.88314,0 c 0.1675,-2.533305 1.71679,-3.161401 3.07766,-3.161401 2.00989,0 2.78454,0.921206 2.80548,3.161401"
         style="font-size:20.93642807px;font-style:normal;font-variant:normal;font-weight:normal;font-stretch:normal;text-align:start;line-height:125%;letter-spacing:0.30000001px;word-spacing:0px;writing-mode:lr-tb;text-anchor:start;fill:#ffffff;font-family:Qubo;-inkscape-font-specification:Qubo Semi-Light"
         id="path3120"
         inkscape:connector-curvature="0" />
      <path
         transform="translate(0,5)"
         d="m 292.70246,56.313086 c 1.23525,0.52341 2.63799,0.628093 3.66387,0.628093 2.59612,0 3.85231,-1.298061 3.85231,-3.161401 0,-1.360867 -0.60716,-2.135516 -2.63799,-2.763609 l -1.23525,-0.376855 c -1.40274,-0.439665 -1.75866,-0.963077 -1.75866,-1.633042 0,-0.984011 0.52341,-1.549295 2.34488,-1.549295 0.77464,0 1.73772,0.04187 2.61705,0.209364 l 0.20937,-1.277122 c -0.83746,-0.188428 -1.75867,-0.29311 -2.78455,-0.29311 -2.40769,0 -3.83137,1.109632 -3.83137,3.035782 0,1.298057 0.69091,2.261135 2.28207,2.742672 l 1.10964,0.355919 c 1.8424,0.607156 2.17738,1.00495 2.17738,1.75866 0,0.984011 -0.50247,1.549296 -2.26113,1.549296 -0.96307,0 -2.32394,-0.125619 -3.37077,-0.481538 l -0.37685,1.256186"
         style="font-size:20.93642807px;font-style:normal;font-variant:normal;font-weight:normal;font-stretch:normal;text-align:start;line-height:125%;letter-spacing:0.30000001px;word-spacing:0px;writing-mode:lr-tb;text-anchor:start;fill:#ffffff;font-family:Qubo;-inkscape-font-specification:Qubo Semi-Light"
         id="path3122"
         inkscape:connector-curvature="0" />
      <path
         inkscape:connector-curvature="0"
         id="path3150"
         style="letter-spacing:0.30000001px;fill:#ffffff;font-family:Qubo;-inkscape-font-specification:Qubo Semi-Light"
         d="m 93.332621,40.143284 0,-14.425199 -1.653978,0 0,14.425199 1.653978,0" />
      <path
         inkscape:connector-curvature="0"
         id="path3152"
         style="letter-spacing:0.30000001px;fill:#ffffff;font-family:Qubo;-inkscape-font-specification:Qubo Semi-Light"
         d="m 102.67225,40.143284 5.38066,-14.425199 -1.69585,0 c -2.72173,7.22306 -3.07765,8.332702 -4.48039,12.373429 -1.38181,-4.01979 -1.82147,-5.192241 -4.501335,-12.373429 l -1.779596,0 5.380661,14.425199 1.69585,0" />
      <path
         inkscape:connector-curvature="0"
         id="path3154"
         style="letter-spacing:0.30000001px;fill:#ffffff;font-family:Qubo;-inkscape-font-specification:Qubo Semi-Light"
         d="m 111.67853,40.143284 c 0,-8.269881 -0.0209,-10.551962 -0.0628,-12.624666 0.75371,1.674912 1.44462,3.287026 4.62695,10.049485 l 1.27713,0 c 3.24514,-6.888078 4.04073,-8.542064 4.60601,-10.028549 -0.0628,1.570231 -0.0628,4.061676 -0.0628,12.60373 l 1.73773,0 0,-14.425199 -2.28208,0 c -3.18233,6.783396 -3.91511,8.437382 -4.5432,10.028549 -0.75371,-1.800531 -1.48649,-3.391708 -4.56414,-10.028549 l -2.34488,0 0,14.425199 1.6121,0" />
    </g>
  </g>
</svg>
