<?xml version="1.0" encoding="UTF-8" standalone="no"?>
<svg
   xmlns:dc="http://purl.org/dc/elements/1.1/"
   xmlns:cc="http://creativecommons.org/ns#"
   xmlns:rdf="http://www.w3.org/1999/02/22-rdf-syntax-ns#"
   xmlns:svg="http://www.w3.org/2000/svg"
   xmlns="http://www.w3.org/2000/svg"
   xmlns:sodipodi="http://sodipodi.sourceforge.net/DTD/sodipodi-0.dtd"
   xmlns:inkscape="http://www.inkscape.org/namespaces/inkscape"
   version="1.1"
   id="svg4144"
   viewBox="0 0 1919.9999 1280"
   height="361.24445mm"
   width="541.86664mm"
   inkscape:version="0.91 r13725"
   sodipodi:docname="laptop.svg">
  <sodipodi:namedview
     pagecolor="#ffffff"
     bordercolor="#666666"
     borderopacity="1"
     objecttolerance="10"
     gridtolerance="10"
     guidetolerance="10"
     inkscape:pageopacity="0"
     inkscape:pageshadow="2"
     inkscape:window-width="713"
     inkscape:window-height="480"
     id="namedview8"
     showgrid="false"
     inkscape:zoom="0.184375"
     inkscape:cx="959.99995"
     inkscape:cy="640"
     inkscape:window-x="0"
     inkscape:window-y="1"
     inkscape:window-maximized="0"
     inkscape:current-layer="svg4144" />
  <defs
     id="defs4146" />
  <metadata
     id="metadata4149">
    <rdf:RDF>
      <cc:Work
         rdf:about="">
        <dc:format>image/svg+xml</dc:format>
        <dc:type
           rdf:resource="http://purl.org/dc/dcmitype/StillImage" />
        <dc:title />
      </cc:Work>
    </rdf:RDF>
  </metadata>
  <g
     transform="translate(262.85714,859.06637)"
     id="layer1"
     style="fill:#ffffff">
    <g
       style="fill:#ffffff"
       id="g3039"
       transform="matrix(1,0,0,-1,-262.85714,420.93363)">
      <path
         style="fill:#ffffff"
         id="path3041"
         d="m 416,256 q -66,0 -113,47 -47,47 -47,113 l 0,704 q 0,66 47,113 47,47 113,47 l 1088,0 q 66,0 113,-47 47,-47 47,-113 l 0,-704 q 0,-66 -47,-113 -47,-47 -113,-47 l -1088,0 z m -32,864 0,-704 q 0,-13 9.5,-22.5 Q 403,384 416,384 l 1088,0 q 13,0 22.5,9.5 9.5,9.5 9.5,22.5 l 0,704 q 0,13 -9.5,22.5 -9.5,9.5 -22.5,9.5 l -1088,0 q -13,0 -22.5,-9.5 Q 384,1133 384,1120 Z m 1376,-928 160,0 0,-96 Q 1920,56 1873,28 1826,0 1760,0 L 160,0 Q 94,0 47,28 0,56 0,96 l 0,96 160,0 1600,0 z M 1040,96 q 16,0 16,16 0,16 -16,16 l -160,0 q -16,0 -16,-16 0,-16 16,-16 l 160,0 z" />
    </g>
  </g>
</svg>
